<?xml version="1.0" encoding="utf-8"?>
<!-- Generator: Adobe Illustrator 27.5.0, SVG Export Plug-In . SVG Version: 6.00 Build 0)  -->
<svg version="1.1" xmlns="http://www.w3.org/2000/svg" xmlns:xlink="http://www.w3.org/1999/xlink" x="0px" y="0px"
	 viewBox="0 0 500 500" style="enable-background:new 0 0 500 500;" xml:space="preserve">
<g id="BACKGROUND">
	<rect x="0" y="0" style="fill:#FFFFFF;" width="500" height="500"/>
</g>
<g id="OBJECTS">
	<g>
		<g>
			<g>
				
					<ellipse transform="matrix(0.2325 -0.9726 0.9726 0.2325 -24.7211 312.7218)" style="fill:#30546A;" cx="185.779" cy="172.024" rx="27.362" ry="27.362"/>
				<polygon style="fill:#FFFFFF;" points="199.821,167.33 190.615,167.33 190.615,158.124 181.787,158.124 181.787,167.33 
					172.581,167.33 172.581,176.158 181.787,176.158 181.787,185.364 190.615,185.364 190.615,176.158 199.821,176.158 				"/>
			</g>
			<g>
				
					<ellipse transform="matrix(0.7071 -0.7071 0.7071 0.7071 -121.3919 277.5939)" style="fill:#ADD5F4;" cx="274.39" cy="285.33" rx="27.362" ry="27.362"/>
				<polygon style="fill:#FFFFFF;" points="288.432,280.636 279.225,280.636 279.225,271.429 270.398,271.429 270.398,280.636 
					261.192,280.636 261.192,289.463 270.398,289.463 270.398,298.67 279.225,298.67 279.225,289.463 288.432,289.463 				"/>
			</g>
			<g>
				<circle style="fill:#ADD5F4;" cx="248.659" cy="367.986" r="12.302"/>
				<polygon style="fill:#FFFFFF;" points="254.972,365.875 250.833,365.875 250.833,361.736 246.864,361.736 246.864,365.875 
					242.725,365.875 242.725,369.844 246.864,369.844 246.864,373.983 250.833,373.983 250.833,369.844 254.972,369.844 				"/>
			</g>
			<g>
				<circle style="fill:#ADD5F4;" cx="137.577" cy="289.183" r="11.771"/>
				<polygon style="fill:#FFFFFF;" points="143.618,287.164 139.658,287.164 139.658,283.203 135.86,283.203 135.86,287.164 
					131.899,287.164 131.899,290.961 135.86,290.961 135.86,294.922 139.658,294.922 139.658,290.961 143.618,290.961 				"/>
			</g>
			<g>
				<circle style="fill:#30546A;" cx="403.135" cy="165.759" r="15.694"/>
				<polygon style="fill:#FFFFFF;" points="411.189,163.067 405.909,163.067 405.909,157.786 400.846,157.786 400.846,163.067 
					395.565,163.067 395.565,168.13 400.846,168.13 400.846,173.411 405.909,173.411 405.909,168.13 411.189,168.13 				"/>
			</g>
			<g>
				<circle style="fill:#30546A;" cx="292.673" cy="152.245" r="36.062"/>
				<polygon style="fill:#FFFFFF;" points="311.18,146.058 299.046,146.058 299.046,133.925 287.412,133.925 287.412,146.058 
					275.278,146.058 275.278,157.693 287.412,157.693 287.412,169.826 299.046,169.826 299.046,157.693 311.18,157.693 				"/>
			</g>
			<g>
				<path style="fill:#30546A;" d="M371.572,112.745c0,3.72-3.016,6.736-6.736,6.736c-3.72,0-6.736-3.016-6.736-6.736
					s3.016-6.736,6.736-6.736C368.556,106.01,371.572,109.025,371.572,112.745z"/>
				<polygon style="fill:#FFFFFF;" points="368.293,111.59 366.027,111.59 366.027,109.324 363.853,109.324 363.853,111.59 
					361.587,111.59 361.587,113.763 363.853,113.763 363.853,116.029 366.027,116.029 366.027,113.763 368.293,113.763 				"/>
			</g>
			<g>
				<circle style="fill:#30546A;" cx="407.493" cy="231.64" r="6.736"/>
				<polygon style="fill:#FFFFFF;" points="410.95,230.485 408.684,230.485 408.684,228.218 406.51,228.218 406.51,230.485 
					404.244,230.485 404.244,232.658 406.51,232.658 406.51,234.924 408.684,234.924 408.684,232.658 410.95,232.658 				"/>
			</g>
			<g>
				<path style="fill:#30546A;" d="M307.277,346.393c0,3.098-2.511,5.609-5.609,5.609s-5.609-2.511-5.609-5.609
					s2.512-5.609,5.609-5.609S307.277,343.296,307.277,346.393z"/>
				<polygon style="fill:#FFFFFF;" points="304.547,345.431 302.659,345.431 302.659,343.544 300.85,343.544 300.85,345.431 
					298.962,345.431 298.962,347.241 300.85,347.241 300.85,349.128 302.659,349.128 302.659,347.241 304.547,347.241 				"/>
			</g>
			<g>
				<circle style="fill:#30546A;" cx="201.593" cy="319.977" r="5.609"/>
				<polygon style="fill:#FFFFFF;" points="204.472,319.014 202.585,319.014 202.585,317.127 200.775,317.127 200.775,319.014 
					198.888,319.014 198.888,320.824 200.775,320.824 200.775,322.711 202.585,322.711 202.585,320.824 204.472,320.824 				"/>
			</g>
			<g>
				<path style="fill:#30546A;" d="M215.661,355.83c0,3.098-2.512,5.609-5.61,5.609c-3.098,0-5.609-2.511-5.609-5.609
					c0-3.098,2.511-5.609,5.609-5.609C213.15,350.221,215.661,352.732,215.661,355.83z"/>
				<polygon style="fill:#FFFFFF;" points="212.931,354.868 211.043,354.868 211.043,352.981 209.233,352.981 209.233,354.868 
					207.346,354.868 207.346,356.678 209.233,356.678 209.233,358.565 211.043,358.565 211.043,356.678 212.931,356.678 				"/>
			</g>
			<g>
				
					<ellipse transform="matrix(0.7071 -0.7071 0.7071 0.7071 -22.7366 305.6407)" style="fill:#417393;" cx="357.573" cy="180.266" rx="29.267" ry="29.267"/>
				<g>
					<path style="fill:#FFFFFF;" d="M366.283,167.512l-25.284,15.558c-2.909,1.79-3.816,5.6-2.026,8.509
						c1.79,2.909,5.6,3.816,8.509,2.026l25.284-15.558c2.909-1.79,3.816-5.6,2.026-8.509
						C373.001,166.629,369.192,165.722,366.283,167.512z M362.618,180.426c0.424,0.689,0.209,1.591-0.48,2.015l-5.945,3.658
						c-0.689,0.424-1.591,0.209-2.015-0.48l-3.032-4.927c-0.424-0.689-0.209-1.591,0.48-2.015l5.945-3.658
						c0.689-0.424,1.591-0.209,2.015,0.48L362.618,180.426z"/>
					<path style="fill:#FFFFFF;" d="M353.591,179.738c0.116,0.188,0.057,0.434-0.131,0.55c-0.188,0.116-0.434,0.057-0.55-0.131
						c-0.116-0.188-0.057-0.434,0.131-0.55C353.229,179.492,353.475,179.55,353.591,179.738z"/>
					<path style="fill:#FFFFFF;" d="M356.071,178.212c0.116,0.188,0.057,0.434-0.131,0.55c-0.188,0.116-0.434,0.057-0.55-0.131
						c-0.116-0.188-0.057-0.434,0.131-0.55C355.709,177.965,355.956,178.024,356.071,178.212z"/>
					<path style="fill:#FFFFFF;" d="M358.552,176.685c0.116,0.188,0.057,0.434-0.131,0.55c-0.188,0.116-0.434,0.057-0.55-0.131
						c-0.116-0.188-0.057-0.434,0.131-0.55C358.19,176.439,358.436,176.497,358.552,176.685z"/>
					<path style="fill:#FFFFFF;" d="M355.662,180.453c0.116,0.188,0.057,0.434-0.131,0.55c-0.188,0.116-0.434,0.057-0.55-0.131
						c-0.116-0.188-0.057-0.434,0.131-0.55C355.3,180.206,355.546,180.265,355.662,180.453z"/>
					<path style="fill:#FFFFFF;" d="M358.143,178.926c0.116,0.188,0.057,0.434-0.131,0.55c-0.188,0.116-0.434,0.057-0.55-0.131
						c-0.116-0.188-0.057-0.434,0.131-0.55C357.781,178.68,358.027,178.738,358.143,178.926z"/>
					<path style="fill:#FFFFFF;" d="M355.366,182.624c0.116,0.188,0.057,0.434-0.131,0.55c-0.188,0.116-0.434,0.057-0.55-0.131
						c-0.116-0.188-0.057-0.434,0.131-0.55C355.005,182.377,355.251,182.436,355.366,182.624z"/>
					<path style="fill:#FFFFFF;" d="M357.847,181.098c0.116,0.188,0.057,0.434-0.131,0.55c-0.188,0.116-0.434,0.057-0.55-0.131
						c-0.116-0.188-0.057-0.434,0.131-0.55C357.485,180.851,357.731,180.91,357.847,181.098z"/>
					<path style="fill:#FFFFFF;" d="M360.328,179.571c0.116,0.188,0.057,0.434-0.131,0.55c-0.188,0.116-0.434,0.057-0.55-0.131
						c-0.116-0.188-0.057-0.434,0.131-0.55C359.966,179.325,360.212,179.383,360.328,179.571z"/>
					<path style="fill:#FFFFFF;" d="M357.438,183.339c0.116,0.188,0.057,0.434-0.131,0.55c-0.188,0.116-0.434,0.057-0.55-0.131
						c-0.116-0.188-0.057-0.434,0.131-0.55C357.076,183.092,357.322,183.151,357.438,183.339z"/>
					<path style="fill:#FFFFFF;" d="M359.918,181.812c0.116,0.188,0.057,0.434-0.131,0.55c-0.188,0.116-0.434,0.057-0.55-0.131
						c-0.116-0.188-0.057-0.434,0.131-0.55C359.557,181.566,359.803,181.624,359.918,181.812z"/>
				</g>
			</g>
			<g>
				
					<ellipse transform="matrix(0.629 -0.7774 0.7774 0.629 -170.2936 344.6174)" style="fill:#417393;" cx="275.931" cy="350.736" rx="16.739" ry="16.739"/>
				<g>
					<path style="fill:#FFFFFF;" d="M280.912,343.442l-14.461,8.898c-1.664,1.024-2.183,3.203-1.159,4.866
						c1.024,1.664,3.203,2.183,4.866,1.159l14.461-8.898c1.664-1.024,2.183-3.203,1.159-4.867
						C284.755,342.937,282.576,342.418,280.912,343.442z M278.816,350.827c0.242,0.394,0.12,0.91-0.275,1.152l-3.4,2.092
						c-0.394,0.242-0.91,0.12-1.152-0.275l-1.734-2.818c-0.242-0.394-0.12-0.91,0.275-1.152l3.4-2.092
						c0.394-0.242,0.91-0.12,1.152,0.274L278.816,350.827z"/>
					<path style="fill:#FFFFFF;" d="M273.653,350.434c0.066,0.108,0.033,0.248-0.075,0.315c-0.108,0.066-0.248,0.033-0.315-0.075
						c-0.066-0.108-0.033-0.248,0.075-0.315C273.446,350.293,273.587,350.327,273.653,350.434z"/>
					<path style="fill:#FFFFFF;" d="M275.072,349.561c0.066,0.108,0.033,0.248-0.075,0.315c-0.108,0.066-0.248,0.033-0.315-0.075
						c-0.066-0.108-0.033-0.248,0.075-0.315C274.865,349.42,275.006,349.454,275.072,349.561z"/>
					<path style="fill:#FFFFFF;" d="M276.491,348.688c0.066,0.108,0.033,0.248-0.075,0.315c-0.107,0.066-0.248,0.033-0.314-0.075
						c-0.066-0.107-0.033-0.248,0.075-0.315C276.284,348.547,276.424,348.581,276.491,348.688z"/>
					<path style="fill:#FFFFFF;" d="M274.838,350.843c0.066,0.108,0.033,0.248-0.075,0.315c-0.108,0.066-0.248,0.033-0.315-0.075
						c-0.066-0.108-0.033-0.248,0.075-0.315C274.631,350.702,274.772,350.735,274.838,350.843z"/>
					<path style="fill:#FFFFFF;" d="M276.257,349.97c0.066,0.108,0.033,0.248-0.075,0.314c-0.108,0.066-0.248,0.033-0.315-0.075
						c-0.066-0.107-0.033-0.248,0.075-0.314C276.05,349.829,276.19,349.862,276.257,349.97z"/>
					<path style="fill:#FFFFFF;" d="M274.669,352.085c0.066,0.107,0.033,0.248-0.075,0.314c-0.108,0.066-0.248,0.033-0.315-0.075
						c-0.066-0.108-0.033-0.248,0.075-0.315C274.462,351.944,274.603,351.977,274.669,352.085z"/>
					<path style="fill:#FFFFFF;" d="M276.088,351.212c0.066,0.108,0.033,0.248-0.075,0.315c-0.108,0.066-0.248,0.033-0.315-0.075
						c-0.066-0.107-0.033-0.248,0.075-0.314C275.88,351.071,276.021,351.104,276.088,351.212z"/>
					<path style="fill:#FFFFFF;" d="M277.506,350.339c0.066,0.107,0.033,0.248-0.075,0.314c-0.108,0.066-0.248,0.033-0.315-0.075
						c-0.066-0.108-0.033-0.248,0.075-0.315C277.299,350.198,277.44,350.231,277.506,350.339z"/>
					<path style="fill:#FFFFFF;" d="M275.854,352.493c0.066,0.108,0.033,0.248-0.075,0.315c-0.108,0.066-0.248,0.033-0.315-0.075
						c-0.066-0.107-0.033-0.248,0.075-0.314C275.647,352.352,275.787,352.386,275.854,352.493z"/>
					<path style="fill:#FFFFFF;" d="M277.272,351.621c0.066,0.108,0.033,0.248-0.075,0.315c-0.108,0.066-0.248,0.033-0.315-0.075
						c-0.066-0.108-0.033-0.248,0.075-0.315C277.065,351.479,277.206,351.513,277.272,351.621z"/>
				</g>
			</g>
			<g>
				<circle style="fill:#417393;" cx="137.232" cy="110.734" r="9.285"/>
				<g>
					<path style="fill:#FFFFFF;" d="M139.995,106.688l-8.021,4.936c-0.923,0.568-1.211,1.776-0.643,2.699
						c0.568,0.923,1.777,1.211,2.699,0.643l8.021-4.936c0.923-0.568,1.211-1.776,0.643-2.699
						C142.127,106.408,140.918,106.12,139.995,106.688z M138.833,110.785c0.135,0.219,0.066,0.505-0.152,0.639l-1.886,1.16
						c-0.219,0.134-0.505,0.066-0.639-0.152l-0.962-1.563c-0.134-0.219-0.066-0.505,0.152-0.639l1.886-1.161
						c0.219-0.134,0.505-0.066,0.639,0.152L138.833,110.785z"/>
					<path style="fill:#FFFFFF;" d="M135.969,110.567c0.037,0.06,0.018,0.138-0.042,0.174c-0.06,0.037-0.138,0.018-0.174-0.041
						c-0.037-0.06-0.018-0.138,0.042-0.174C135.854,110.488,135.932,110.507,135.969,110.567z"/>
					<path style="fill:#FFFFFF;" d="M136.756,110.082c0.037,0.06,0.018,0.138-0.042,0.174c-0.06,0.037-0.138,0.018-0.174-0.042
						c-0.037-0.06-0.018-0.138,0.042-0.174C136.641,110.004,136.719,110.023,136.756,110.082z"/>
					<path style="fill:#FFFFFF;" d="M137.543,109.598c0.037,0.06,0.018,0.138-0.042,0.174c-0.06,0.037-0.138,0.018-0.174-0.042
						c-0.037-0.06-0.018-0.138,0.042-0.174C137.428,109.52,137.506,109.538,137.543,109.598z"/>
					<path style="fill:#FFFFFF;" d="M136.626,110.793c0.037,0.06,0.018,0.138-0.042,0.174c-0.06,0.037-0.138,0.018-0.174-0.041
						c-0.037-0.06-0.018-0.138,0.041-0.174C136.511,110.715,136.589,110.734,136.626,110.793z"/>
					<path style="fill:#FFFFFF;" d="M137.413,110.309c0.037,0.06,0.018,0.138-0.042,0.174c-0.06,0.037-0.138,0.018-0.174-0.041
						c-0.037-0.06-0.018-0.138,0.042-0.174C137.298,110.231,137.376,110.249,137.413,110.309z"/>
					<path style="fill:#FFFFFF;" d="M136.532,111.482c0.037,0.06,0.018,0.138-0.042,0.174c-0.06,0.037-0.138,0.018-0.174-0.042
						s-0.018-0.138,0.042-0.174C136.417,111.404,136.495,111.423,136.532,111.482z"/>
					<path style="fill:#FFFFFF;" d="M137.319,110.998c0.037,0.06,0.018,0.138-0.042,0.174c-0.06,0.037-0.138,0.018-0.174-0.042
						c-0.037-0.06-0.018-0.138,0.042-0.174C137.204,110.92,137.283,110.938,137.319,110.998z"/>
					<path style="fill:#FFFFFF;" d="M138.106,110.514c0.037,0.06,0.018,0.138-0.042,0.174c-0.06,0.037-0.138,0.018-0.174-0.042
						c-0.037-0.06-0.018-0.138,0.042-0.174C137.991,110.436,138.069,110.454,138.106,110.514z"/>
					<path style="fill:#FFFFFF;" d="M137.189,111.709c0.037,0.06,0.018,0.138-0.042,0.174c-0.06,0.037-0.138,0.018-0.174-0.042
						c-0.037-0.06-0.018-0.138,0.042-0.174C137.074,111.631,137.153,111.649,137.189,111.709z"/>
					<path style="fill:#FFFFFF;" d="M137.976,111.225c0.037,0.06,0.018,0.138-0.042,0.174c-0.06,0.037-0.138,0.018-0.174-0.042
						c-0.037-0.06-0.018-0.138,0.042-0.174C137.861,111.146,137.94,111.165,137.976,111.225z"/>
				</g>
			</g>
			<g>
				<circle style="fill:#417393;" cx="95.37" cy="232.758" r="10.611"/>
				<g>
					<path style="fill:#FFFFFF;" d="M98.528,228.134l-9.167,5.641c-1.055,0.649-1.384,2.03-0.735,3.085
						c0.649,1.055,2.03,1.384,3.085,0.735l9.167-5.641c1.055-0.649,1.384-2.03,0.735-3.085
						C100.964,227.814,99.583,227.485,98.528,228.134z M97.199,232.816c0.154,0.25,0.076,0.577-0.174,0.731l-2.155,1.326
						c-0.25,0.154-0.577,0.076-0.731-0.174l-1.099-1.787c-0.154-0.25-0.076-0.577,0.174-0.73l2.156-1.326
						c0.25-0.154,0.577-0.076,0.731,0.174L97.199,232.816z"/>
					<path style="fill:#FFFFFF;" d="M93.926,232.567c0.042,0.068,0.021,0.157-0.048,0.199c-0.068,0.042-0.158,0.021-0.199-0.048
						c-0.042-0.068-0.021-0.158,0.047-0.199C93.795,232.477,93.884,232.499,93.926,232.567z"/>
					<path style="fill:#FFFFFF;" d="M94.826,232.013c0.042,0.068,0.021,0.158-0.047,0.2c-0.068,0.042-0.157,0.021-0.199-0.048
						c-0.042-0.068-0.021-0.158,0.047-0.199C94.695,231.924,94.784,231.945,94.826,232.013z"/>
					<path style="fill:#FFFFFF;" d="M95.725,231.46c0.042,0.068,0.021,0.157-0.048,0.199c-0.068,0.042-0.157,0.021-0.199-0.047
						c-0.042-0.068-0.021-0.158,0.048-0.199C95.594,231.371,95.683,231.392,95.725,231.46z"/>
					<path style="fill:#FFFFFF;" d="M94.677,232.826c0.042,0.068,0.021,0.157-0.048,0.199c-0.068,0.042-0.157,0.021-0.199-0.048
						c-0.042-0.068-0.021-0.158,0.048-0.199C94.546,232.736,94.635,232.758,94.677,232.826z"/>
					<path style="fill:#FFFFFF;" d="M95.577,232.273c0.042,0.068,0.021,0.157-0.047,0.199c-0.068,0.042-0.158,0.021-0.199-0.048
						c-0.042-0.068-0.021-0.158,0.048-0.199C95.446,232.183,95.535,232.204,95.577,232.273z"/>
					<path style="fill:#FFFFFF;" d="M94.57,233.613c0.042,0.068,0.021,0.157-0.048,0.199c-0.068,0.042-0.157,0.021-0.199-0.048
						c-0.042-0.068-0.021-0.157,0.048-0.199C94.439,233.524,94.528,233.545,94.57,233.613z"/>
					<path style="fill:#FFFFFF;" d="M95.47,233.06c0.042,0.068,0.021,0.157-0.048,0.199c-0.068,0.042-0.158,0.021-0.199-0.048
						c-0.042-0.068-0.021-0.158,0.048-0.199C95.339,232.97,95.428,232.992,95.47,233.06z"/>
					<path style="fill:#FFFFFF;" d="M96.369,232.506c0.042,0.068,0.021,0.157-0.047,0.199c-0.068,0.042-0.158,0.021-0.199-0.048
						c-0.042-0.068-0.021-0.158,0.047-0.199C96.238,232.417,96.327,232.438,96.369,232.506z"/>
					<path style="fill:#FFFFFF;" d="M95.321,233.872c0.042,0.068,0.021,0.158-0.047,0.199c-0.068,0.042-0.158,0.021-0.199-0.048
						c-0.042-0.068-0.021-0.157,0.047-0.199C95.19,233.783,95.279,233.804,95.321,233.872z"/>
					<path style="fill:#FFFFFF;" d="M96.221,233.319c0.042,0.068,0.021,0.157-0.048,0.199c-0.068,0.042-0.157,0.021-0.199-0.048
						c-0.042-0.068-0.021-0.157,0.048-0.199C96.09,233.23,96.179,233.251,96.221,233.319z"/>
				</g>
			</g>
			<g>
				<circle style="fill:#417393;" cx="325.301" cy="110.677" r="12.173"/>
				<g>
					<path style="fill:#FFFFFF;" d="M328.924,105.372l-10.516,6.471c-1.21,0.745-1.587,2.329-0.843,3.539
						c0.745,1.21,2.329,1.587,3.539,0.843l10.516-6.471c1.21-0.744,1.587-2.329,0.843-3.539
						C331.718,105.005,330.134,104.627,328.924,105.372z M327.399,110.743c0.176,0.287,0.087,0.662-0.2,0.838l-2.473,1.521
						c-0.287,0.176-0.662,0.087-0.838-0.2l-1.261-2.049c-0.176-0.287-0.087-0.662,0.2-0.838l2.473-1.522
						c0.286-0.176,0.662-0.087,0.838,0.2L327.399,110.743z"/>
					<path style="fill:#FFFFFF;" d="M323.645,110.457c0.048,0.078,0.024,0.181-0.055,0.229c-0.078,0.048-0.181,0.024-0.229-0.054
						c-0.048-0.078-0.024-0.181,0.055-0.229C323.494,110.354,323.597,110.379,323.645,110.457z"/>
					<path style="fill:#FFFFFF;" d="M324.676,109.822c0.048,0.078,0.024,0.181-0.054,0.229c-0.078,0.048-0.181,0.024-0.229-0.055
						c-0.048-0.078-0.024-0.181,0.055-0.229C324.526,109.72,324.628,109.744,324.676,109.822z"/>
					<path style="fill:#FFFFFF;" d="M325.708,109.187c0.048,0.078,0.024,0.181-0.055,0.229c-0.078,0.048-0.181,0.024-0.229-0.054
						c-0.048-0.078-0.024-0.181,0.054-0.229C325.558,109.085,325.66,109.109,325.708,109.187z"/>
					<path style="fill:#FFFFFF;" d="M324.506,110.754c0.048,0.078,0.024,0.181-0.055,0.229c-0.078,0.048-0.181,0.024-0.229-0.055
						c-0.048-0.078-0.024-0.181,0.054-0.229C324.356,110.652,324.458,110.676,324.506,110.754z"/>
					<path style="fill:#FFFFFF;" d="M325.538,110.119c0.048,0.078,0.024,0.181-0.055,0.229c-0.078,0.048-0.181,0.024-0.229-0.054
						s-0.024-0.181,0.055-0.229C325.387,110.017,325.49,110.041,325.538,110.119z"/>
					<path style="fill:#FFFFFF;" d="M324.383,111.657c0.048,0.078,0.024,0.181-0.055,0.229c-0.078,0.048-0.181,0.024-0.229-0.054
						c-0.048-0.078-0.024-0.181,0.055-0.229C324.233,111.555,324.335,111.579,324.383,111.657z"/>
					<path style="fill:#FFFFFF;" d="M325.415,111.023c0.048,0.078,0.024,0.181-0.054,0.229c-0.078,0.048-0.181,0.024-0.229-0.054
						c-0.048-0.078-0.024-0.181,0.054-0.229C325.264,110.92,325.367,110.944,325.415,111.023z"/>
					<path style="fill:#FFFFFF;" d="M326.447,110.388c0.048,0.078,0.024,0.181-0.054,0.229c-0.078,0.048-0.181,0.024-0.229-0.055
						c-0.048-0.078-0.024-0.181,0.054-0.229C326.296,110.285,326.399,110.31,326.447,110.388z"/>
					<path style="fill:#FFFFFF;" d="M325.245,111.955c0.048,0.078,0.024,0.181-0.055,0.229c-0.078,0.048-0.181,0.024-0.229-0.054
						c-0.048-0.078-0.024-0.181,0.054-0.229C325.094,111.852,325.197,111.877,325.245,111.955z"/>
					<path style="fill:#FFFFFF;" d="M326.277,111.32c0.048,0.078,0.024,0.181-0.054,0.229c-0.078,0.048-0.181,0.024-0.229-0.054
						c-0.048-0.078-0.024-0.181,0.055-0.229C326.126,111.217,326.228,111.242,326.277,111.32z"/>
				</g>
			</g>
			<g>
				<circle style="fill:#417393;" cx="316.166" cy="334.902" r="8.948"/>
				<g>
					<path style="fill:#FFFFFF;" d="M318.829,331.003l-7.73,4.757c-0.889,0.547-1.167,1.712-0.619,2.601
						c0.547,0.889,1.712,1.167,2.601,0.62l7.73-4.757c0.889-0.547,1.167-1.712,0.619-2.601
						C320.883,330.733,319.719,330.456,318.829,331.003z M317.709,334.951c0.13,0.211,0.064,0.486-0.147,0.616l-1.818,1.118
						c-0.211,0.13-0.487,0.064-0.616-0.147l-0.927-1.507c-0.13-0.211-0.064-0.486,0.147-0.616l1.817-1.118
						c0.211-0.13,0.487-0.064,0.616,0.147L317.709,334.951z"/>
					<path style="fill:#FFFFFF;" d="M314.949,334.741c0.035,0.057,0.018,0.133-0.04,0.168c-0.058,0.035-0.133,0.017-0.168-0.04
						c-0.035-0.057-0.017-0.133,0.04-0.168S314.914,334.683,314.949,334.741z"/>
					<path style="fill:#FFFFFF;" d="M315.707,334.274c0.035,0.058,0.017,0.133-0.04,0.168c-0.057,0.035-0.133,0.017-0.168-0.04
						c-0.035-0.057-0.017-0.133,0.04-0.168C315.597,334.199,315.672,334.216,315.707,334.274z"/>
					<path style="fill:#FFFFFF;" d="M316.466,333.807c0.035,0.057,0.017,0.133-0.04,0.168s-0.133,0.017-0.168-0.04
						c-0.035-0.057-0.017-0.133,0.04-0.168C316.355,333.732,316.43,333.75,316.466,333.807z"/>
					<path style="fill:#FFFFFF;" d="M315.582,334.959c0.035,0.057,0.018,0.133-0.04,0.168c-0.058,0.035-0.133,0.017-0.168-0.04
						c-0.035-0.057-0.017-0.133,0.04-0.168S315.547,334.902,315.582,334.959z"/>
					<path style="fill:#FFFFFF;" d="M316.341,334.492c0.035,0.057,0.017,0.133-0.04,0.168c-0.057,0.035-0.133,0.017-0.168-0.04
						s-0.017-0.133,0.04-0.168C316.23,334.417,316.305,334.435,316.341,334.492z"/>
					<path style="fill:#FFFFFF;" d="M315.492,335.623c0.035,0.057,0.017,0.133-0.04,0.168c-0.057,0.035-0.133,0.017-0.168-0.04
						c-0.035-0.057-0.017-0.133,0.04-0.168S315.456,335.565,315.492,335.623z"/>
					<path style="fill:#FFFFFF;" d="M316.25,335.156c0.035,0.057,0.018,0.133-0.04,0.168c-0.058,0.035-0.133,0.017-0.168-0.04
						c-0.035-0.057-0.017-0.133,0.04-0.168C316.14,335.081,316.215,335.099,316.25,335.156z"/>
					<path style="fill:#FFFFFF;" d="M317.009,334.69c0.035,0.057,0.017,0.133-0.04,0.168c-0.057,0.035-0.133,0.017-0.168-0.04
						c-0.035-0.057-0.017-0.133,0.04-0.168S316.973,334.632,317.009,334.69z"/>
					<path style="fill:#FFFFFF;" d="M316.125,335.841c0.035,0.057,0.017,0.133-0.04,0.168c-0.057,0.035-0.133,0.017-0.168-0.04
						c-0.035-0.058-0.017-0.133,0.04-0.168S316.09,335.784,316.125,335.841z"/>
					<path style="fill:#FFFFFF;" d="M316.883,335.375c0.035,0.058,0.017,0.133-0.04,0.168c-0.057,0.035-0.133,0.017-0.168-0.04
						s-0.017-0.133,0.04-0.168C316.773,335.299,316.848,335.317,316.883,335.375z"/>
				</g>
			</g>
			<g>
				
					<ellipse transform="matrix(0.0917 -0.9958 0.9958 0.0917 -73.1367 481.3453)" style="fill:#417393;" cx="227.295" cy="280.765" rx="17.015" ry="17.015"/>
				<g>
					<path style="fill:#FFFFFF;" d="M226.46,271.825l-5.541,16.346c-0.638,1.881,0.37,3.922,2.251,4.56
						c1.881,0.638,3.922-0.37,4.56-2.251l5.541-16.346c0.638-1.881-0.37-3.922-2.251-4.56S227.097,269.944,226.46,271.825z
						 M229.612,278.964c0.445,0.151,0.684,0.634,0.533,1.08l-1.303,3.843c-0.151,0.445-0.634,0.684-1.08,0.533l-3.186-1.08
						c-0.445-0.151-0.684-0.634-0.533-1.08l1.303-3.843c0.151-0.445,0.635-0.684,1.08-0.533L229.612,278.964z"/>
					<path style="fill:#FFFFFF;" d="M225.317,282.006c0.121,0.041,0.187,0.173,0.145,0.295c-0.041,0.122-0.173,0.187-0.295,0.146
						c-0.122-0.041-0.187-0.173-0.145-0.295C225.063,282.03,225.195,281.965,225.317,282.006z"/>
					<path style="fill:#FFFFFF;" d="M225.861,280.403c0.122,0.041,0.187,0.173,0.145,0.295c-0.041,0.122-0.173,0.187-0.295,0.146
						c-0.122-0.041-0.187-0.173-0.146-0.295C225.607,280.427,225.739,280.361,225.861,280.403z"/>
					<path style="fill:#FFFFFF;" d="M226.404,278.799c0.121,0.041,0.187,0.173,0.145,0.295c-0.041,0.122-0.173,0.187-0.295,0.146
						c-0.122-0.041-0.187-0.173-0.146-0.295C226.151,278.823,226.283,278.758,226.404,278.799z"/>
					<path style="fill:#FFFFFF;" d="M226.509,281.557c0.121,0.041,0.187,0.173,0.145,0.295c-0.041,0.121-0.173,0.187-0.295,0.145
						c-0.122-0.041-0.187-0.173-0.145-0.295C226.256,281.581,226.388,281.516,226.509,281.557z"/>
					<path style="fill:#FFFFFF;" d="M227.053,279.954c0.122,0.041,0.187,0.173,0.145,0.295c-0.041,0.122-0.173,0.187-0.295,0.145
						s-0.187-0.173-0.146-0.295C226.799,279.978,226.931,279.913,227.053,279.954z"/>
					<path style="fill:#FFFFFF;" d="M227.183,282.639c0.122,0.041,0.187,0.173,0.146,0.295c-0.041,0.122-0.173,0.187-0.295,0.145
						c-0.122-0.041-0.187-0.173-0.146-0.295C226.929,282.663,227.061,282.598,227.183,282.639z"/>
					<path style="fill:#FFFFFF;" d="M227.726,281.035c0.122,0.041,0.187,0.173,0.146,0.295c-0.041,0.122-0.173,0.187-0.295,0.146
						c-0.122-0.041-0.187-0.173-0.146-0.295C227.473,281.059,227.605,280.994,227.726,281.035z"/>
					<path style="fill:#FFFFFF;" d="M228.27,279.431c0.122,0.041,0.187,0.173,0.145,0.295c-0.041,0.121-0.173,0.187-0.295,0.146
						c-0.122-0.041-0.187-0.173-0.146-0.295C228.016,279.455,228.148,279.39,228.27,279.431z"/>
					<path style="fill:#FFFFFF;" d="M228.375,282.19c0.122,0.041,0.187,0.173,0.145,0.295c-0.041,0.122-0.173,0.187-0.295,0.146
						s-0.187-0.173-0.146-0.295C228.121,282.214,228.253,282.149,228.375,282.19z"/>
					<path style="fill:#FFFFFF;" d="M228.918,280.586c0.122,0.041,0.187,0.173,0.146,0.295c-0.041,0.122-0.173,0.187-0.295,0.146
						c-0.122-0.041-0.187-0.173-0.145-0.295C228.665,280.61,228.797,280.545,228.918,280.586z"/>
				</g>
			</g>
			<g>
				<path style="fill:#417393;" d="M422.384,183.956c0,2.964-2.402,5.366-5.366,5.366c-2.964,0-5.366-2.402-5.366-5.366
					c0-2.964,2.402-5.366,5.366-5.366C419.982,178.59,422.384,180.993,422.384,183.956z"/>
				<g>
					<path style="fill:#FFFFFF;" d="M418.615,181.618l-4.636,2.853c-0.533,0.328-0.7,1.027-0.371,1.56
						c0.328,0.533,1.027,0.7,1.56,0.371l4.636-2.853c0.533-0.328,0.7-1.027,0.372-1.56
						C419.847,181.456,419.148,181.29,418.615,181.618z M417.943,183.986c0.078,0.126,0.038,0.292-0.088,0.369l-1.09,0.671
						c-0.126,0.078-0.292,0.038-0.37-0.088l-0.556-0.904c-0.078-0.126-0.038-0.292,0.088-0.369l1.09-0.671
						c0.126-0.078,0.292-0.038,0.369,0.088L417.943,183.986z"/>
					<path style="fill:#FFFFFF;" d="M416.288,183.859c0.021,0.035,0.01,0.08-0.024,0.101c-0.035,0.021-0.08,0.01-0.101-0.024
						c-0.021-0.035-0.01-0.08,0.024-0.101C416.222,183.814,416.267,183.825,416.288,183.859z"/>
					<path style="fill:#FFFFFF;" d="M416.743,183.58c0.021,0.035,0.01,0.08-0.024,0.101c-0.035,0.021-0.08,0.01-0.101-0.024
						c-0.021-0.035-0.01-0.08,0.024-0.101C416.676,183.534,416.722,183.545,416.743,183.58z"/>
					<path style="fill:#FFFFFF;" d="M417.198,183.3c0.021,0.035,0.01,0.08-0.024,0.101c-0.034,0.021-0.08,0.01-0.101-0.024
						c-0.021-0.034-0.01-0.08,0.024-0.101C417.131,183.255,417.176,183.265,417.198,183.3z"/>
					<path style="fill:#FFFFFF;" d="M416.668,183.99c0.021,0.034,0.01,0.08-0.024,0.101c-0.034,0.021-0.08,0.011-0.101-0.024
						c-0.021-0.035-0.01-0.08,0.024-0.101C416.602,183.945,416.647,183.956,416.668,183.99z"/>
					<path style="fill:#FFFFFF;" d="M417.123,183.711c0.021,0.035,0.01,0.08-0.024,0.101c-0.035,0.021-0.08,0.01-0.101-0.024
						c-0.021-0.034-0.01-0.08,0.024-0.101C417.056,183.665,417.102,183.676,417.123,183.711z"/>
					<path style="fill:#FFFFFF;" d="M416.614,184.389c0.021,0.034,0.01,0.08-0.024,0.101c-0.034,0.021-0.08,0.01-0.101-0.024
						s-0.01-0.08,0.024-0.101C416.547,184.343,416.592,184.354,416.614,184.389z"/>
					<path style="fill:#FFFFFF;" d="M417.068,184.109c0.021,0.035,0.01,0.08-0.024,0.101c-0.034,0.021-0.08,0.01-0.101-0.024
						c-0.021-0.035-0.011-0.08,0.024-0.101C417.002,184.064,417.047,184.074,417.068,184.109z"/>
					<path style="fill:#FFFFFF;" d="M417.523,183.829c0.021,0.035,0.01,0.08-0.024,0.101c-0.035,0.021-0.08,0.01-0.101-0.024
						c-0.021-0.035-0.01-0.08,0.024-0.101C417.457,183.784,417.502,183.794,417.523,183.829z"/>
					<path style="fill:#FFFFFF;" d="M416.993,184.52c0.021,0.034,0.01,0.08-0.024,0.101c-0.034,0.021-0.08,0.01-0.101-0.024
						s-0.01-0.08,0.024-0.101C416.927,184.474,416.972,184.485,416.993,184.52z"/>
					<path style="fill:#FFFFFF;" d="M417.448,184.24c0.021,0.035,0.01,0.08-0.024,0.101c-0.034,0.021-0.08,0.01-0.101-0.024
						c-0.021-0.035-0.01-0.08,0.024-0.101C417.382,184.195,417.427,184.205,417.448,184.24z"/>
				</g>
			</g>
			<g>
				<circle style="fill:#ADD5F4;" cx="144.736" cy="211.636" r="26.133"/>
				<g>
					<path style="fill:#FFFFFF;" d="M152.514,200.248l-22.577,13.892c-2.598,1.598-3.408,5-1.809,7.598
						c1.598,2.598,5,3.408,7.598,1.809l22.577-13.892c2.598-1.598,3.408-5,1.809-7.598
						C158.513,199.459,155.111,198.649,152.514,200.248z M149.241,211.779c0.379,0.615,0.187,1.421-0.428,1.799l-5.309,3.266
						c-0.615,0.379-1.421,0.187-1.799-0.428l-2.707-4.4c-0.378-0.615-0.187-1.421,0.428-1.799l5.309-3.267
						c0.615-0.379,1.421-0.187,1.799,0.428L149.241,211.779z"/>
					<path style="fill:#FFFFFF;" d="M141.181,211.165c0.103,0.168,0.051,0.388-0.117,0.491c-0.168,0.103-0.388,0.051-0.491-0.117
						c-0.103-0.168-0.051-0.388,0.117-0.491C140.857,210.945,141.077,210.997,141.181,211.165z"/>
					<path style="fill:#FFFFFF;" d="M143.396,209.802c0.103,0.168,0.051,0.388-0.117,0.491c-0.168,0.103-0.388,0.051-0.491-0.117
						c-0.103-0.168-0.051-0.388,0.117-0.491C143.072,209.582,143.292,209.634,143.396,209.802z"/>
					<path style="fill:#FFFFFF;" d="M145.611,208.439c0.103,0.168,0.051,0.388-0.117,0.491c-0.168,0.103-0.388,0.051-0.491-0.117
						c-0.103-0.168-0.051-0.388,0.117-0.491C145.287,208.219,145.507,208.271,145.611,208.439z"/>
					<path style="fill:#FFFFFF;" d="M143.03,211.803c0.103,0.168,0.051,0.388-0.117,0.491c-0.168,0.103-0.388,0.051-0.491-0.117
						c-0.103-0.168-0.051-0.388,0.117-0.491C142.707,211.583,142.927,211.635,143.03,211.803z"/>
					<path style="fill:#FFFFFF;" d="M145.245,210.44c0.103,0.168,0.051,0.388-0.117,0.491c-0.168,0.103-0.388,0.051-0.491-0.117
						c-0.103-0.168-0.051-0.388,0.117-0.491C144.922,210.22,145.142,210.272,145.245,210.44z"/>
					<path style="fill:#FFFFFF;" d="M142.766,213.742c0.103,0.168,0.051,0.388-0.117,0.491c-0.168,0.103-0.388,0.051-0.491-0.117
						c-0.103-0.168-0.051-0.388,0.117-0.491C142.443,213.521,142.663,213.574,142.766,213.742z"/>
					<path style="fill:#FFFFFF;" d="M144.981,212.379c0.103,0.168,0.051,0.388-0.117,0.491c-0.168,0.103-0.388,0.051-0.491-0.117
						c-0.103-0.168-0.051-0.388,0.117-0.491C144.658,212.158,144.878,212.211,144.981,212.379z"/>
					<path style="fill:#FFFFFF;" d="M147.196,211.016c0.103,0.168,0.051,0.388-0.117,0.491c-0.168,0.103-0.388,0.051-0.491-0.117
						c-0.103-0.168-0.051-0.388,0.117-0.491C146.873,210.796,147.093,210.848,147.196,211.016z"/>
					<path style="fill:#FFFFFF;" d="M144.616,214.38c0.103,0.168,0.051,0.388-0.117,0.491c-0.168,0.103-0.388,0.051-0.491-0.117
						c-0.103-0.168-0.051-0.388,0.117-0.491C144.293,214.16,144.513,214.212,144.616,214.38z"/>
					<path style="fill:#FFFFFF;" d="M146.831,213.017c0.103,0.168,0.051,0.388-0.117,0.491c-0.168,0.103-0.388,0.051-0.491-0.117
						c-0.103-0.168-0.051-0.388,0.117-0.491C146.508,212.797,146.728,212.849,146.831,213.017z"/>
				</g>
			</g>
			<g>
				<path style="fill:#ADD5F4;" d="M310.337,109.716c0,3.682-2.984,6.666-6.666,6.666c-3.682,0-6.666-2.984-6.666-6.666
					s2.985-6.666,6.666-6.666C307.353,103.049,310.337,106.034,310.337,109.716z"/>
				<g>
					<path style="fill:#FFFFFF;" d="M305.655,106.811l-5.759,3.544c-0.663,0.408-0.869,1.275-0.462,1.938
						c0.408,0.663,1.275,0.869,1.938,0.462l5.759-3.544c0.663-0.408,0.869-1.275,0.461-1.938
						C307.185,106.609,306.318,106.403,305.655,106.811z M304.82,109.752c0.097,0.157,0.048,0.362-0.109,0.459l-1.354,0.833
						c-0.157,0.097-0.362,0.048-0.459-0.109l-0.691-1.122c-0.097-0.157-0.048-0.362,0.109-0.459l1.354-0.833
						c0.157-0.097,0.362-0.048,0.459,0.109L304.82,109.752z"/>
					<path style="fill:#FFFFFF;" d="M302.764,109.595c0.026,0.043,0.013,0.099-0.03,0.125c-0.043,0.026-0.099,0.013-0.125-0.03
						c-0.026-0.043-0.013-0.099,0.03-0.125C302.682,109.539,302.738,109.552,302.764,109.595z"/>
					<path style="fill:#FFFFFF;" d="M303.329,109.248c0.026,0.043,0.013,0.099-0.03,0.125c-0.043,0.026-0.099,0.013-0.125-0.03
						c-0.026-0.043-0.013-0.099,0.03-0.125C303.247,109.191,303.303,109.205,303.329,109.248z"/>
					<path style="fill:#FFFFFF;" d="M303.894,108.9c0.026,0.043,0.013,0.099-0.03,0.125c-0.043,0.026-0.099,0.013-0.125-0.03
						c-0.026-0.043-0.013-0.099,0.03-0.125C303.812,108.844,303.868,108.857,303.894,108.9z"/>
					<path style="fill:#FFFFFF;" d="M303.236,109.758c0.026,0.043,0.013,0.099-0.03,0.125c-0.043,0.026-0.099,0.013-0.125-0.03
						c-0.026-0.043-0.013-0.099,0.03-0.125C303.154,109.702,303.21,109.715,303.236,109.758z"/>
					<path style="fill:#FFFFFF;" d="M303.801,109.41c0.026,0.043,0.013,0.099-0.03,0.125c-0.043,0.026-0.099,0.013-0.125-0.03
						c-0.026-0.043-0.013-0.099,0.03-0.125C303.719,109.354,303.775,109.368,303.801,109.41z"/>
					<path style="fill:#FFFFFF;" d="M303.169,110.253c0.026,0.043,0.013,0.099-0.03,0.125c-0.043,0.026-0.099,0.013-0.125-0.03
						c-0.026-0.043-0.013-0.099,0.03-0.125C303.086,110.197,303.142,110.21,303.169,110.253z"/>
					<path style="fill:#FFFFFF;" d="M303.734,109.905c0.026,0.043,0.013,0.099-0.03,0.125c-0.043,0.026-0.099,0.013-0.125-0.03
						c-0.026-0.043-0.013-0.099,0.03-0.125C303.651,109.849,303.707,109.862,303.734,109.905z"/>
					<path style="fill:#FFFFFF;" d="M304.299,109.557c0.026,0.043,0.013,0.099-0.03,0.125c-0.043,0.026-0.099,0.013-0.125-0.03
						c-0.026-0.043-0.013-0.099,0.03-0.125C304.216,109.501,304.272,109.515,304.299,109.557z"/>
					<path style="fill:#FFFFFF;" d="M303.641,110.415c0.026,0.043,0.013,0.099-0.03,0.125c-0.043,0.026-0.099,0.013-0.125-0.03
						c-0.026-0.043-0.013-0.099,0.03-0.125C303.558,110.359,303.614,110.373,303.641,110.415z"/>
					<path style="fill:#FFFFFF;" d="M304.206,110.068c0.026,0.043,0.013,0.099-0.03,0.125c-0.043,0.026-0.099,0.013-0.125-0.03
						c-0.026-0.043-0.013-0.099,0.03-0.125C304.123,110.012,304.179,110.025,304.206,110.068z"/>
				</g>
			</g>
			<g>
				<circle style="fill:#ADD5F4;" cx="292.309" cy="243.09" r="6.666"/>
				<g>
					<path style="fill:#FFFFFF;" d="M294.293,240.185l-5.759,3.544c-0.663,0.408-0.869,1.275-0.462,1.938
						c0.408,0.663,1.275,0.869,1.938,0.462l5.759-3.544c0.663-0.408,0.869-1.275,0.462-1.938
						C295.823,239.984,294.956,239.777,294.293,240.185z M293.458,243.126c0.096,0.157,0.048,0.362-0.109,0.459l-1.354,0.833
						c-0.157,0.097-0.362,0.048-0.459-0.109l-0.691-1.122c-0.097-0.157-0.048-0.362,0.109-0.459l1.354-0.833
						c0.157-0.097,0.362-0.048,0.459,0.109L293.458,243.126z"/>
					<path style="fill:#FFFFFF;" d="M291.402,242.97c0.026,0.043,0.013,0.099-0.03,0.125c-0.043,0.026-0.099,0.013-0.125-0.03
						c-0.026-0.043-0.013-0.099,0.03-0.125C291.319,242.913,291.376,242.927,291.402,242.97z"/>
					<path style="fill:#FFFFFF;" d="M291.967,242.622c0.026,0.043,0.013,0.099-0.03,0.125c-0.043,0.026-0.099,0.013-0.125-0.03
						c-0.026-0.043-0.013-0.099,0.03-0.125C291.884,242.566,291.941,242.579,291.967,242.622z"/>
					<path style="fill:#FFFFFF;" d="M292.532,242.274c0.026,0.043,0.013,0.099-0.03,0.125c-0.043,0.026-0.099,0.013-0.125-0.03
						c-0.026-0.043-0.013-0.099,0.03-0.125C292.449,242.218,292.506,242.231,292.532,242.274z"/>
					<path style="fill:#FFFFFF;" d="M291.874,243.132c0.026,0.043,0.013,0.099-0.03,0.125c-0.043,0.026-0.099,0.013-0.125-0.03
						c-0.026-0.043-0.013-0.099,0.03-0.125C291.791,243.076,291.847,243.09,291.874,243.132z"/>
					<path style="fill:#FFFFFF;" d="M292.439,242.785c0.026,0.043,0.013,0.099-0.03,0.125c-0.043,0.026-0.099,0.013-0.125-0.03
						c-0.026-0.043-0.013-0.099,0.03-0.125C292.356,242.729,292.412,242.742,292.439,242.785z"/>
					<path style="fill:#FFFFFF;" d="M291.806,243.627c0.026,0.043,0.013,0.099-0.03,0.125c-0.043,0.026-0.099,0.013-0.125-0.03
						c-0.026-0.043-0.013-0.099,0.03-0.125C291.724,243.571,291.78,243.584,291.806,243.627z"/>
					<path style="fill:#FFFFFF;" d="M292.371,243.279c0.026,0.043,0.013,0.099-0.03,0.125c-0.043,0.026-0.099,0.013-0.125-0.03
						c-0.026-0.043-0.013-0.099,0.03-0.125C292.289,243.223,292.345,243.236,292.371,243.279z"/>
					<path style="fill:#FFFFFF;" d="M292.936,242.932c0.026,0.043,0.013,0.099-0.03,0.125c-0.043,0.026-0.099,0.013-0.125-0.03
						c-0.026-0.043-0.013-0.099,0.03-0.125C292.854,242.875,292.91,242.889,292.936,242.932z"/>
					<path style="fill:#FFFFFF;" d="M292.278,243.79c0.026,0.043,0.013,0.099-0.03,0.125c-0.043,0.026-0.099,0.013-0.125-0.03
						c-0.026-0.043-0.013-0.099,0.03-0.125C292.196,243.734,292.252,243.747,292.278,243.79z"/>
					<path style="fill:#FFFFFF;" d="M292.843,243.442c0.026,0.043,0.013,0.099-0.03,0.125c-0.043,0.026-0.099,0.013-0.125-0.03
						c-0.026-0.043-0.013-0.099,0.03-0.125C292.761,243.386,292.817,243.399,292.843,243.442z"/>
				</g>
			</g>
			<g>
				
					<ellipse transform="matrix(0.3389 -0.9408 0.9408 0.3389 -148.2165 391.8576)" style="fill:#ADD5F4;" cx="204.727" cy="301.396" rx="9.689" ry="9.689"/>
				<g>
					<path style="fill:#FFFFFF;" d="M209.772,302.226l-8.204-5.412c-0.944-0.623-2.214-0.362-2.837,0.582
						c-0.623,0.944-0.362,2.214,0.582,2.837l8.204,5.412c0.944,0.623,2.214,0.362,2.837-0.582
						C210.977,304.119,210.716,302.849,209.772,302.226z M205.385,302.932c-0.148,0.224-0.448,0.285-0.672,0.138l-1.929-1.273
						c-0.224-0.147-0.285-0.448-0.138-0.672l1.055-1.599c0.147-0.224,0.448-0.285,0.672-0.138l1.929,1.273
						c0.224,0.147,0.285,0.448,0.138,0.672L205.385,302.932z"/>
					<path style="fill:#FFFFFF;" d="M204.329,300.127c-0.04,0.061-0.122,0.078-0.183,0.038c-0.061-0.04-0.078-0.122-0.038-0.183
						c0.04-0.061,0.122-0.078,0.183-0.038C204.352,299.984,204.369,300.066,204.329,300.127z"/>
					<path style="fill:#FFFFFF;" d="M205.134,300.658c-0.04,0.061-0.122,0.078-0.183,0.038c-0.061-0.04-0.078-0.122-0.038-0.183
						c0.04-0.061,0.122-0.078,0.183-0.038C205.157,300.515,205.174,300.597,205.134,300.658z"/>
					<path style="fill:#FFFFFF;" d="M205.939,301.189c-0.04,0.061-0.122,0.078-0.183,0.038c-0.061-0.04-0.078-0.122-0.038-0.183
						c0.04-0.061,0.122-0.078,0.183-0.038C205.962,301.046,205.979,301.128,205.939,301.189z"/>
					<path style="fill:#FFFFFF;" d="M204.404,300.849c-0.04,0.061-0.122,0.078-0.183,0.038c-0.061-0.04-0.078-0.122-0.038-0.183
						c0.04-0.061,0.122-0.078,0.183-0.038C204.427,300.706,204.444,300.788,204.404,300.849z"/>
					<path style="fill:#FFFFFF;" d="M205.209,301.379c-0.04,0.061-0.122,0.078-0.183,0.038c-0.061-0.04-0.078-0.122-0.038-0.183
						c0.04-0.061,0.122-0.078,0.183-0.038C205.232,301.236,205.249,301.319,205.209,301.379z"/>
					<path style="fill:#FFFFFF;" d="M203.711,301.064c-0.04,0.061-0.122,0.078-0.183,0.038c-0.061-0.04-0.078-0.122-0.038-0.183
						c0.04-0.061,0.122-0.078,0.183-0.038C203.734,300.92,203.751,301.003,203.711,301.064z"/>
					<path style="fill:#FFFFFF;" d="M204.516,301.594c-0.04,0.061-0.122,0.078-0.183,0.038c-0.061-0.04-0.078-0.122-0.038-0.183
						c0.04-0.061,0.122-0.078,0.183-0.038C204.539,301.451,204.556,301.533,204.516,301.594z"/>
					<path style="fill:#FFFFFF;" d="M205.321,302.125c-0.04,0.061-0.122,0.078-0.183,0.038c-0.061-0.04-0.078-0.122-0.038-0.183
						c0.04-0.061,0.122-0.078,0.183-0.038C205.344,301.982,205.361,302.064,205.321,302.125z"/>
					<path style="fill:#FFFFFF;" d="M203.786,301.785c-0.04,0.061-0.122,0.078-0.183,0.038c-0.061-0.04-0.078-0.122-0.038-0.183
						c0.04-0.061,0.122-0.078,0.183-0.038C203.81,301.642,203.826,301.724,203.786,301.785z"/>
					<path style="fill:#FFFFFF;" d="M204.591,302.316c-0.04,0.061-0.122,0.078-0.183,0.038c-0.061-0.04-0.078-0.122-0.038-0.183
						c0.04-0.061,0.122-0.078,0.183-0.038C204.615,302.173,204.631,302.255,204.591,302.316z"/>
				</g>
			</g>
			<g>
				<path style="fill:#ADD5F4;" d="M277.13,323.938c0,3.682-2.984,6.666-6.666,6.666c-3.682,0-6.666-2.985-6.666-6.666
					c0-3.682,2.984-6.666,6.666-6.666C274.146,317.272,277.13,320.256,277.13,323.938z"/>
				<g>
					<path style="fill:#FFFFFF;" d="M272.448,321.033l-5.759,3.544c-0.663,0.408-0.869,1.275-0.462,1.938
						c0.408,0.663,1.276,0.869,1.938,0.462l5.759-3.544c0.663-0.408,0.869-1.276,0.462-1.938
						C273.978,320.832,273.111,320.625,272.448,321.033z M271.613,323.974c0.096,0.157,0.048,0.362-0.109,0.459l-1.354,0.833
						c-0.157,0.097-0.362,0.048-0.459-0.109L269,324.035c-0.097-0.157-0.048-0.362,0.109-0.459l1.354-0.833
						c0.157-0.096,0.362-0.048,0.459,0.109L271.613,323.974z"/>
					<path style="fill:#FFFFFF;" d="M269.557,323.818c0.026,0.043,0.013,0.099-0.03,0.125c-0.043,0.026-0.099,0.013-0.125-0.03
						c-0.026-0.043-0.013-0.099,0.03-0.125C269.475,323.761,269.531,323.775,269.557,323.818z"/>
					<path style="fill:#FFFFFF;" d="M270.122,323.47c0.026,0.043,0.013,0.099-0.03,0.125c-0.043,0.026-0.099,0.013-0.125-0.03
						c-0.026-0.043-0.013-0.099,0.03-0.125C270.04,323.414,270.096,323.427,270.122,323.47z"/>
					<path style="fill:#FFFFFF;" d="M270.687,323.122c0.026,0.043,0.013,0.099-0.03,0.125c-0.043,0.026-0.099,0.013-0.125-0.03
						c-0.026-0.043-0.013-0.099,0.03-0.125C270.605,323.066,270.661,323.079,270.687,323.122z"/>
					<path style="fill:#FFFFFF;" d="M270.029,323.98c0.026,0.043,0.013,0.099-0.03,0.125c-0.043,0.026-0.099,0.013-0.125-0.03
						c-0.026-0.043-0.013-0.099,0.03-0.125C269.947,323.924,270.003,323.938,270.029,323.98z"/>
					<path style="fill:#FFFFFF;" d="M270.594,323.633c0.026,0.043,0.013,0.099-0.03,0.125c-0.043,0.026-0.099,0.013-0.125-0.03
						c-0.026-0.043-0.013-0.099,0.03-0.125C270.512,323.577,270.568,323.59,270.594,323.633z"/>
					<path style="fill:#FFFFFF;" d="M269.962,324.475c0.026,0.043,0.013,0.099-0.03,0.125c-0.043,0.026-0.099,0.013-0.125-0.03
						c-0.026-0.043-0.013-0.099,0.03-0.125C269.879,324.419,269.935,324.432,269.962,324.475z"/>
					<path style="fill:#FFFFFF;" d="M270.527,324.127c0.026,0.043,0.013,0.099-0.03,0.125c-0.043,0.026-0.099,0.013-0.125-0.03
						c-0.026-0.043-0.013-0.099,0.03-0.125C270.444,324.071,270.5,324.084,270.527,324.127z"/>
					<path style="fill:#FFFFFF;" d="M271.092,323.78c0.026,0.043,0.013,0.099-0.03,0.125c-0.043,0.026-0.099,0.013-0.125-0.03
						c-0.026-0.043-0.013-0.099,0.03-0.125C271.009,323.723,271.065,323.737,271.092,323.78z"/>
					<path style="fill:#FFFFFF;" d="M270.434,324.638c0.026,0.043,0.013,0.099-0.03,0.125c-0.043,0.026-0.099,0.013-0.125-0.03
						c-0.026-0.043-0.013-0.099,0.03-0.125C270.351,324.582,270.407,324.595,270.434,324.638z"/>
					<path style="fill:#FFFFFF;" d="M270.999,324.29c0.026,0.043,0.013,0.099-0.03,0.125c-0.043,0.026-0.099,0.013-0.125-0.03
						c-0.026-0.043-0.013-0.099,0.03-0.125C270.916,324.234,270.972,324.247,270.999,324.29z"/>
				</g>
			</g>
			<g>
				<circle style="fill:#5699C5;" cx="124.295" cy="153.019" r="33.089"/>
				<g>
					<path style="fill:#FFFFFF;" d="M118.804,169.307l-10.797-10.798l18.528-18.528l8.503,2.295l2.295,8.503L118.804,169.307z
						 M109.181,158.51l9.624,9.624l17.602-17.602l-2.046-7.578l-7.578-2.045L109.181,158.51z"/>
					<polygon style="fill:#FFFFFF;" points="133.792,142.275 144.271,133.043 135.038,143.521 134.733,142.649 					"/>
					
						<rect x="108.963" y="161.099" transform="matrix(0.7071 -0.7071 0.7071 0.7071 -84.8111 127.3152)" style="fill:#FFFFFF;" width="4.633" height="9.871"/>
					
						<rect x="109.014" y="160.994" transform="matrix(0.7071 -0.7071 0.7071 0.7071 -86.6058 126.5733)" style="fill:#FFFFFF;" width="0.94" height="13.67"/>
					<polygon style="fill:#FFFFFF;" points="127.729,148.275 128.481,147.523 133.249,152.291 135.008,150.532 133.362,143.951 
						126.781,142.306 111.593,157.495 119.819,165.721 123.103,162.437 120.268,159.602 121.02,158.85 123.855,161.685 
						124.427,161.113 121.592,158.278 122.345,157.525 125.18,160.36 125.752,159.788 122.917,156.953 123.67,156.2 
						126.505,159.035 127.197,158.342 122.429,153.574 123.182,152.822 127.95,157.59 128.402,157.138 125.567,154.303 
						126.32,153.55 129.155,156.385 129.727,155.813 126.892,152.978 127.644,152.226 130.479,155.061 131.051,154.488 
						128.216,151.654 128.969,150.901 131.804,153.736 132.497,153.043 					"/>
				</g>
			</g>
			<g>
				<circle style="fill:#5699C5;" cx="231.218" cy="153.258" r="17.382"/>
				<g>
					<path style="fill:#FFFFFF;" d="M228.334,161.814l-5.672-5.672l9.733-9.733l4.466,1.205l1.206,4.467L228.334,161.814z
						 M223.279,156.142l5.055,5.055l9.246-9.246l-1.075-3.981l-3.981-1.074L223.279,156.142z"/>
					<polygon style="fill:#FFFFFF;" points="236.207,147.614 241.712,142.764 236.862,148.268 236.701,147.81 					"/>
					
						<rect x="223.164" y="157.502" transform="matrix(0.7071 -0.7071 0.7071 0.7071 -47.484 205.5557)" style="fill:#FFFFFF;" width="2.434" height="5.185"/>
					
						<rect x="223.191" y="157.447" transform="matrix(0.7071 -0.7071 0.7071 0.7071 -48.4272 205.1616)" style="fill:#FFFFFF;" width="0.494" height="7.181"/>
					<polygon style="fill:#FFFFFF;" points="233.022,150.766 233.417,150.37 235.922,152.875 236.846,151.951 235.981,148.494 
						232.524,147.63 224.546,155.609 228.867,159.93 230.592,158.205 229.103,156.716 229.498,156.321 230.987,157.81 
						231.288,157.509 229.799,156.02 230.194,155.625 231.683,157.114 231.984,156.813 230.495,155.324 230.89,154.929 
						232.379,156.418 232.743,156.054 230.238,153.55 230.634,153.154 233.138,155.659 233.376,155.422 231.886,153.932 
						232.282,153.537 233.771,155.026 234.072,154.726 232.582,153.236 232.978,152.841 234.467,154.33 234.768,154.03 
						233.278,152.54 233.674,152.145 235.163,153.634 235.527,153.27 					"/>
				</g>
			</g>
			<g>
				<circle style="fill:#5699C5;" cx="314.62" cy="257.717" r="16.159"/>
				<g>
					<path style="fill:#FFFFFF;" d="M311.939,265.671l-5.273-5.273l9.048-9.048l4.152,1.121l1.121,4.152L311.939,265.671z
						 M307.239,260.398l4.7,4.7l8.596-8.596l-0.999-3.701l-3.701-0.999L307.239,260.398z"/>
					<polygon style="fill:#FFFFFF;" points="319.258,252.47 324.375,247.962 319.867,253.079 319.718,252.653 					"/>
					
						<rect x="307.133" y="261.663" transform="matrix(0.7071 -0.7071 0.7071 0.7071 -96.4395 295.3207)" style="fill:#FFFFFF;" width="2.262" height="4.82"/>
					
						<rect x="307.158" y="261.612" transform="matrix(0.7071 -0.7071 0.7071 0.7071 -97.3159 294.9577)" style="fill:#FFFFFF;" width="0.459" height="6.676"/>
					<polygon style="fill:#FFFFFF;" points="316.297,255.4 316.665,255.033 318.993,257.361 319.852,256.503 319.048,253.289 
						315.835,252.485 308.417,259.903 312.434,263.92 314.038,262.316 312.654,260.932 313.021,260.564 314.406,261.949 
						314.685,261.669 313.301,260.285 313.668,259.917 315.053,261.302 315.332,261.022 313.947,259.638 314.315,259.27 
						315.7,260.655 316.038,260.317 313.709,257.988 314.077,257.621 316.405,259.949 316.626,259.728 315.241,258.344 
						315.609,257.976 316.993,259.361 317.273,259.082 315.888,257.697 316.256,257.329 317.641,258.714 317.92,258.435 
						316.535,257.05 316.903,256.682 318.288,258.067 318.626,257.729 					"/>
				</g>
			</g>
			<g>
				
					<ellipse transform="matrix(0.7071 -0.7071 0.7071 0.7071 -58.7919 282.6218)" style="fill:#417393;" cx="311.759" cy="212.279" rx="23.274" ry="23.274"/>
				<g>
					<path style="fill:#FFFFFF;" d="M307.897,223.736l-7.595-7.595l13.032-13.032l5.981,1.614l1.614,5.981L307.897,223.736z
						 M301.128,216.141l6.769,6.769l12.381-12.381l-1.439-5.33l-5.33-1.439L301.128,216.141z"/>
					<polygon style="fill:#FFFFFF;" points="318.439,204.722 325.809,198.229 319.315,205.598 319.101,204.985 					"/>
					
						<rect x="300.974" y="217.963" transform="matrix(0.7071 -0.7071 0.7071 0.7071 -67.9469 278.8294)" style="fill:#FFFFFF;" width="3.259" height="6.943"/>
					
						<rect x="301.011" y="217.889" transform="matrix(0.7071 -0.7071 0.7071 0.7071 -69.2091 278.3068)" style="fill:#FFFFFF;" width="0.661" height="9.615"/>
					<polygon style="fill:#FFFFFF;" points="314.174,208.943 314.703,208.413 318.057,211.767 319.294,210.53 318.137,205.901 
						313.508,204.744 302.824,215.427 308.611,221.213 310.92,218.904 308.926,216.91 309.456,216.38 311.45,218.374 
						311.852,217.972 309.858,215.978 310.387,215.448 312.382,217.442 312.784,217.04 310.79,215.046 311.319,214.516 
						313.313,216.511 313.8,216.023 310.447,212.67 310.976,212.14 314.33,215.494 314.647,215.176 312.653,213.182 
						313.183,212.653 315.177,214.647 315.579,214.245 313.585,212.25 314.115,211.721 316.109,213.715 316.511,213.313 
						314.517,211.319 315.047,210.789 317.041,212.783 317.528,212.296 					"/>
				</g>
			</g>
			<g>
				<circle style="fill:#417393;" cx="177.378" cy="263.443" r="32.471"/>
				<g>
					<path style="fill:#FFFFFF;" d="M171.991,279.427l-10.596-10.596l18.182-18.182l8.344,2.252l2.252,8.344L171.991,279.427z
						 M162.547,268.831l9.444,9.444l17.273-17.273l-2.007-7.436l-7.436-2.007L162.547,268.831z"/>
					<polygon style="fill:#FFFFFF;" points="186.699,252.9 196.981,243.84 187.921,254.122 187.622,253.267 					"/>
					
						<rect x="162.333" y="271.372" transform="matrix(0.7071 -0.7071 0.7071 0.7071 -147.1018 197.2955)" style="fill:#FFFFFF;" width="4.546" height="9.686"/>
					
						<rect x="162.383" y="271.269" transform="matrix(0.7071 -0.7071 0.7071 0.7071 -148.8628 196.5662)" style="fill:#FFFFFF;" width="0.923" height="13.415"/>
					<polygon style="fill:#FFFFFF;" points="180.748,258.788 181.487,258.049 186.166,262.728 187.891,261.003 186.277,254.545 
						179.819,252.93 164.914,267.835 172.986,275.908 176.209,272.685 173.427,269.903 174.165,269.165 176.947,271.947 
						177.509,271.385 174.727,268.603 175.465,267.865 178.247,270.647 178.809,270.085 176.027,267.303 176.765,266.565 
						179.547,269.346 180.227,268.667 175.548,263.988 176.287,263.249 180.966,267.928 181.409,267.485 178.627,264.703 
						179.365,263.964 182.147,266.746 182.709,266.185 179.927,263.403 180.665,262.664 183.447,265.446 184.009,264.885 
						181.227,262.103 181.966,261.364 184.748,264.146 185.427,263.467 					"/>
				</g>
			</g>
			<g>
				<path style="fill:#417393;" d="M190.078,203.717c6.284,2.122,9.658,8.935,7.536,15.219c-2.122,6.284-8.935,9.658-15.219,7.536
					c-6.284-2.122-9.658-8.935-7.536-15.219C176.981,204.969,183.795,201.595,190.078,203.717z"/>
				<g>
					<path style="fill:#FFFFFF;" d="M191.2,218.873l-4.966,2.459l-4.22-8.522l1.776-2.657l3.19,0.198L191.2,218.873z
						 M186.37,220.928l4.426-2.192l-4.009-8.096l-2.843-0.176l-1.583,2.368L186.37,220.928z"/>
					<polygon style="fill:#FFFFFF;" points="183.645,210.581 181.687,205.906 184.218,210.297 183.883,210.301 					"/>
					
						<rect x="187.41" y="220.24" transform="matrix(0.8961 -0.4438 0.4438 0.8961 -78.4588 106.9235)" style="fill:#FFFFFF;" width="3.582" height="1.681"/>
					
						<rect x="187.13" y="221.735" transform="matrix(0.8961 -0.4438 0.4438 0.8961 -78.7821 107.1895)" style="fill:#FFFFFF;" width="4.961" height="0.341"/>
					<polygon style="fill:#FFFFFF;" points="185.005,213.363 184.833,213.016 187.026,211.93 186.626,211.122 184.172,210.924 
						182.842,212.995 186.301,219.981 190.085,218.108 189.337,216.598 188.033,217.243 187.862,216.897 189.166,216.251 
						189.035,215.988 187.731,216.634 187.56,216.288 188.864,215.642 188.734,215.379 187.43,216.025 187.258,215.678 
						188.562,215.033 188.404,214.714 186.212,215.8 186.04,215.454 188.233,214.368 188.13,214.16 186.826,214.806 186.655,214.46 
						187.959,213.814 187.828,213.551 186.524,214.197 186.353,213.85 187.657,213.205 187.527,212.941 186.223,213.587 
						186.051,213.241 187.355,212.595 187.197,212.277 					"/>
				</g>
			</g>
			<g>
				<path style="fill:#417393;" d="M114.599,220.676c2.669,0.901,4.102,3.795,3.201,6.464c-0.901,2.669-3.795,4.102-6.464,3.201
					c-2.669-0.901-4.102-3.795-3.201-6.464C109.036,221.208,111.93,219.775,114.599,220.676z"/>
				<g>
					<path style="fill:#FFFFFF;" d="M115.076,227.114l-2.109,1.045l-1.792-3.62l0.755-1.129l1.355,0.084L115.076,227.114z
						 M113.024,227.987l1.88-0.931l-1.703-3.439l-1.208-0.075l-0.673,1.006L113.024,227.987z"/>
					<polygon style="fill:#FFFFFF;" points="111.867,223.592 111.035,221.607 112.11,223.472 111.967,223.473 					"/>
					
						<rect x="113.466" y="227.695" transform="matrix(0.8961 -0.4438 0.4438 0.8961 -89.3385 74.3748)" style="fill:#FFFFFF;" width="1.522" height="0.714"/>
					
						<rect x="113.346" y="228.33" transform="matrix(0.8962 -0.4437 0.4437 0.8962 -89.4711 74.4816)" style="fill:#FFFFFF;" width="2.107" height="0.145"/>
					<polygon style="fill:#FFFFFF;" points="112.444,224.774 112.371,224.627 113.302,224.165 113.132,223.822 112.09,223.738 
						111.525,224.618 112.995,227.585 114.602,226.789 114.284,226.148 113.73,226.422 113.657,226.275 114.211,226.001 
						114.156,225.889 113.602,226.163 113.529,226.016 114.083,225.742 114.028,225.63 113.474,225.904 113.401,225.757 
						113.955,225.483 113.888,225.348 112.956,225.809 112.884,225.662 113.815,225.201 113.771,225.113 113.218,225.387 
						113.145,225.24 113.699,224.965 113.643,224.854 113.09,225.128 113.017,224.981 113.57,224.707 113.515,224.595 
						112.961,224.869 112.888,224.722 113.442,224.448 113.375,224.313 					"/>
				</g>
			</g>
			<g>
				<path style="fill:#417393;" d="M148.839,301.186c3.974,1.342,6.108,5.651,4.766,9.625c-1.342,3.974-5.651,6.108-9.625,4.766
					s-6.108-5.651-4.766-9.625C140.556,301.978,144.865,299.844,148.839,301.186z"/>
				<g>
					<path style="fill:#FFFFFF;" d="M149.549,310.772l-3.141,1.555l-2.669-5.39l1.123-1.681l2.018,0.125L149.549,310.772z
						 M146.494,312.072l2.799-1.386l-2.535-5.12l-1.798-0.112l-1.001,1.498L146.494,312.072z"/>
					<polygon style="fill:#FFFFFF;" points="144.771,305.527 143.532,302.571 145.133,305.348 144.921,305.35 					"/>
					
						<rect x="147.152" y="311.636" transform="matrix(0.8962 -0.4437 0.4437 0.8962 -123.1253 98.2198)" style="fill:#FFFFFF;" width="2.266" height="1.063"/>
					
						<rect x="146.974" y="312.582" transform="matrix(0.8961 -0.4438 0.4438 0.8961 -123.3313 98.3902)" style="fill:#FFFFFF;" width="3.138" height="0.216"/>
					<polygon style="fill:#FFFFFF;" points="145.63,307.287 145.522,307.068 146.909,306.381 146.656,305.87 145.104,305.744 
						144.263,307.054 146.451,311.473 148.843,310.288 148.37,309.333 147.546,309.741 147.437,309.522 148.262,309.114 
						148.18,308.947 147.355,309.356 147.246,309.137 148.071,308.728 147.989,308.562 147.164,308.97 147.056,308.751 
						147.88,308.343 147.781,308.141 146.394,308.828 146.285,308.609 147.672,307.922 147.607,307.791 146.783,308.199 
						146.674,307.98 147.499,307.572 147.416,307.406 146.592,307.814 146.483,307.595 147.308,307.187 147.225,307.02 
						146.401,307.429 146.292,307.21 147.117,306.801 147.017,306.6 					"/>
				</g>
			</g>
			<g>
				
					<ellipse transform="matrix(0.2619 -0.9651 0.9651 0.2619 149.8881 467.5512)" style="fill:#ADD5F4;" cx="380.6" cy="135.788" rx="17.316" ry="17.316"/>
				<g>
					<path style="fill:#FFFFFF;" d="M377.727,144.312l-5.65-5.65l9.696-9.696l4.45,1.201l1.201,4.449L377.727,144.312z
						 M372.69,138.661l5.036,5.036l9.211-9.211l-1.07-3.966l-3.966-1.07L372.69,138.661z"/>
					<polygon style="fill:#FFFFFF;" points="385.57,130.166 391.053,125.335 386.222,130.818 386.062,130.361 					"/>
					
						<rect x="372.576" y="140.017" transform="matrix(0.7071 -0.7071 0.7071 0.7071 8.6449 306.0697)" style="fill:#FFFFFF;" width="2.424" height="5.165"/>
					
						<rect x="372.603" y="139.962" transform="matrix(0.7071 -0.7071 0.7071 0.7071 7.7064 305.6821)" style="fill:#FFFFFF;" width="0.492" height="7.154"/>
					<polygon style="fill:#FFFFFF;" points="382.397,133.306 382.791,132.912 385.286,135.407 386.206,134.487 385.345,131.043 
						381.901,130.182 373.953,138.13 378.257,142.435 379.976,140.717 378.492,139.233 378.886,138.839 380.37,140.323 
						380.669,140.024 379.185,138.54 379.579,138.146 381.063,139.63 381.362,139.33 379.879,137.847 380.273,137.453 
						381.756,138.936 382.119,138.574 379.624,136.079 380.017,135.685 382.513,138.18 382.749,137.944 381.265,136.46 
						381.659,136.066 383.143,137.55 383.442,137.251 381.959,135.767 382.352,135.373 383.836,136.857 384.135,136.557 
						382.652,135.074 383.046,134.68 384.529,136.163 384.892,135.801 					"/>
				</g>
			</g>
			<g>
				
					<ellipse transform="matrix(0.1612 -0.9869 0.9869 0.1612 24.3217 267.125)" style="fill:#417393;" cx="169.31" cy="119.254" rx="20.411" ry="20.411"/>
				<path style="fill:#FFFFFF;" d="M175.655,109.08c-2.843-0.004-5.285,1.714-6.342,4.17c-1.051-2.458-3.488-4.183-6.331-4.187
					c-3.806-0.005-6.896,3.076-6.901,6.883c-0.002,1.724,0.411,3.303,1.092,4.737h4.103l2.985-6.645
					c0.088-0.196,0.284-0.323,0.499-0.323c0.001,0,0.002,0,0.003,0c0.216,0.001,0.412,0.13,0.498,0.328l2.553,5.871l0.626-1.306
					c0.091-0.19,0.283-0.31,0.493-0.31c0.004,0,0.008,0,0.012,0c0.215,0.005,0.407,0.135,0.491,0.332l1.863,4.374l1.088-3.335
					c0.072-0.221,0.277-0.373,0.51-0.377c0.232-0.008,0.443,0.14,0.523,0.358l0.415,1.132h4.487c0.302,0,0.547,0.245,0.547,0.547
					c0,0.302-0.245,0.547-0.547,0.547h-4.869c-0.229,0-0.434-0.143-0.513-0.358l-0.003-0.009l-1.05,3.219
					c-0.071,0.217-0.268,0.367-0.496,0.377c-0.008,0-0.016,0.001-0.024,0.001c-0.218,0-0.417-0.13-0.503-0.332l-1.961-4.602
					l-0.621,1.295c-0.091,0.19-0.283,0.31-0.493,0.31c-0.003,0-0.007,0-0.01,0c-0.214-0.004-0.406-0.132-0.491-0.328l-2.537-5.834
					l-2.623,5.84c-0.088,0.196-0.283,0.323-0.499,0.323h-3.872c3.555,5.955,11.532,9.072,11.532,9.072s13.236-5.484,13.248-14.866
					C182.543,112.174,179.462,109.085,175.655,109.08z"/>
			</g>
			<g>
				
					<ellipse transform="matrix(0.6519 -0.7583 0.7583 0.6519 -190.4196 267.7984)" style="fill:#417393;" cx="196.466" cy="341.297" rx="11.648" ry="11.648"/>
				<path style="fill:#FFFFFF;" d="M200.087,335.491c-1.622-0.002-3.016,0.978-3.619,2.379c-0.599-1.403-1.99-2.387-3.612-2.389
					c-2.172-0.003-3.935,1.756-3.938,3.928c-0.001,0.983,0.235,1.885,0.623,2.703h2.341l1.703-3.792
					c0.05-0.112,0.162-0.184,0.285-0.184c0.001,0,0.001,0,0.002,0c0.123,0.001,0.235,0.074,0.284,0.187l1.457,3.35l0.357-0.745
					c0.052-0.108,0.161-0.177,0.281-0.177c0.002,0,0.005,0,0.007,0c0.122,0.003,0.232,0.077,0.28,0.19l1.063,2.496l0.621-1.903
					c0.041-0.126,0.158-0.213,0.291-0.215c0.132-0.004,0.253,0.08,0.298,0.204l0.237,0.646h2.56c0.172,0,0.312,0.14,0.312,0.312
					c0,0.172-0.14,0.312-0.312,0.312h-2.778c-0.131,0-0.248-0.082-0.293-0.204l-0.002-0.005l-0.6,1.837
					c-0.04,0.124-0.153,0.209-0.283,0.215c-0.005,0-0.009,0-0.014,0c-0.124,0-0.238-0.074-0.287-0.19l-1.119-2.626l-0.354,0.739
					c-0.052,0.108-0.161,0.177-0.281,0.177c-0.002,0-0.004,0-0.006,0c-0.122-0.002-0.232-0.076-0.28-0.187l-1.448-3.329
					l-1.497,3.332c-0.05,0.112-0.162,0.184-0.285,0.184h-2.209c2.029,3.398,6.581,5.177,6.581,5.177s7.553-3.129,7.56-8.483
					C204.017,337.257,202.259,335.493,200.087,335.491z"/>
			</g>
			<g>
				<circle style="fill:#5699C5;" cx="366.913" cy="248.012" r="34.039"/>
				<path style="fill:#FFFFFF;" d="M377.495,231.045c-4.74-0.006-8.813,2.859-10.576,6.953c-1.752-4.099-5.817-6.975-10.557-6.981
					c-6.348-0.009-11.5,5.13-11.509,11.478c-0.004,2.874,0.686,5.508,1.82,7.899h6.842l4.978-11.081
					c0.147-0.327,0.473-0.538,0.832-0.538c0.002,0,0.004,0,0.005,0c0.361,0.002,0.686,0.217,0.83,0.548l4.258,9.79l1.043-2.177
					c0.152-0.317,0.472-0.518,0.822-0.518c0.007,0,0.013,0,0.02,0c0.358,0.008,0.678,0.225,0.818,0.554l3.108,7.293l1.815-5.562
					c0.12-0.369,0.462-0.622,0.85-0.629c0.387-0.013,0.739,0.233,0.872,0.598l0.692,1.888h7.482c0.503,0,0.912,0.408,0.912,0.911
					s-0.408,0.912-0.912,0.912h-8.119c-0.382,0-0.724-0.239-0.856-0.598l-0.005-0.015l-1.752,5.369
					c-0.118,0.361-0.447,0.611-0.827,0.628c-0.013,0.001-0.027,0.001-0.04,0.001c-0.364,0-0.695-0.217-0.838-0.554l-3.27-7.674
					l-1.035,2.16c-0.152,0.317-0.472,0.518-0.822,0.518c-0.006,0-0.011,0-0.017,0c-0.357-0.007-0.677-0.221-0.819-0.548
					l-4.231-9.728l-4.374,9.738c-0.147,0.327-0.473,0.538-0.832,0.538h-6.456c5.929,9.931,19.231,15.129,19.231,15.129
					s22.072-9.146,22.093-24.792C388.981,236.206,383.842,231.053,377.495,231.045z"/>
			</g>
			<g>
				
					<ellipse transform="matrix(0.9213 -0.3889 0.3889 0.9213 -109.1928 117.4047)" style="fill:#5699C5;" cx="235.394" cy="328.41" rx="26.405" ry="26.405"/>
				<path style="fill:#FFFFFF;" d="M243.603,315.247c-3.677-0.005-6.837,2.217-8.204,5.394c-1.359-3.18-4.512-5.411-8.19-5.416
					c-4.924-0.007-8.921,3.98-8.928,8.904c-0.003,2.23,0.532,4.273,1.412,6.128h5.307l3.861-8.596
					c0.114-0.254,0.367-0.417,0.645-0.417c0.001,0,0.003,0,0.004,0c0.28,0.002,0.533,0.168,0.644,0.425l3.303,7.594l0.809-1.689
					c0.118-0.246,0.366-0.402,0.638-0.402c0.005,0,0.01,0,0.016,0c0.278,0.006,0.526,0.174,0.635,0.43l2.411,5.658l1.408-4.315
					c0.093-0.286,0.358-0.482,0.66-0.488c0.3-0.01,0.573,0.181,0.677,0.464l0.537,1.464h5.804c0.391,0,0.707,0.317,0.707,0.707
					c0,0.39-0.317,0.707-0.707,0.707h-6.298c-0.296,0-0.562-0.185-0.664-0.464l-0.004-0.011l-1.359,4.165
					c-0.091,0.28-0.347,0.474-0.641,0.487c-0.01,0.001-0.021,0.001-0.031,0.001c-0.282,0-0.539-0.168-0.65-0.43l-2.536-5.953
					l-0.803,1.675c-0.118,0.246-0.366,0.401-0.638,0.401c-0.004,0-0.009,0-0.013,0c-0.277-0.005-0.525-0.171-0.635-0.425
					l-3.283-7.547l-3.393,7.554c-0.114,0.254-0.367,0.417-0.645,0.417h-5.008c4.599,7.704,14.918,11.736,14.918,11.736
					s17.122-7.094,17.138-19.232C252.513,319.251,248.527,315.254,243.603,315.247z"/>
			</g>
			<g>
				<path style="fill:#5699C5;" d="M410.386,143.036c0,3.149-2.552,5.701-5.701,5.701s-5.701-2.553-5.701-5.701
					s2.553-5.701,5.701-5.701S410.386,139.887,410.386,143.036z"/>
				<path style="fill:#FFFFFF;" d="M406.457,140.194c-0.794-0.001-1.476,0.479-1.771,1.165c-0.293-0.687-0.974-1.168-1.768-1.169
					c-1.063-0.001-1.926,0.859-1.928,1.923c-0.001,0.481,0.115,0.923,0.305,1.323h1.146l0.834-1.856
					c0.025-0.055,0.079-0.09,0.139-0.09c0,0,0,0,0.001,0c0.06,0,0.115,0.036,0.139,0.092l0.713,1.64l0.175-0.365
					c0.025-0.053,0.079-0.087,0.138-0.087c0.001,0,0.002,0,0.003,0c0.06,0.001,0.114,0.038,0.137,0.093l0.521,1.222l0.304-0.932
					c0.02-0.062,0.077-0.104,0.142-0.105c0.065-0.002,0.124,0.039,0.146,0.1l0.116,0.316h1.253c0.084,0,0.153,0.068,0.153,0.153
					c0,0.084-0.068,0.153-0.153,0.153h-1.36c-0.064,0-0.121-0.04-0.143-0.1l-0.001-0.002l-0.293,0.899
					c-0.02,0.06-0.075,0.102-0.139,0.105c-0.002,0-0.004,0-0.007,0c-0.061,0-0.116-0.036-0.14-0.093l-0.548-1.285l-0.173,0.362
					c-0.025,0.053-0.079,0.087-0.138,0.087c-0.001,0-0.002,0-0.003,0c-0.06-0.001-0.113-0.037-0.137-0.092l-0.709-1.629
					l-0.733,1.631c-0.025,0.055-0.079,0.09-0.139,0.09h-1.081c0.993,1.663,3.221,2.534,3.221,2.534s3.697-1.532,3.701-4.153
					C408.381,141.058,407.52,140.195,406.457,140.194z"/>
			</g>
			<g>
				
					<ellipse transform="matrix(0.7071 -0.7071 0.7071 0.7071 25.0468 277.9244)" style="fill:#5699C5;" cx="348.008" cy="108.728" rx="8.107" ry="8.107"/>
				<path style="fill:#FFFFFF;" d="M350.528,104.687c-1.129-0.001-2.099,0.681-2.519,1.656c-0.417-0.976-1.385-1.661-2.514-1.663
					c-1.512-0.002-2.739,1.222-2.741,2.734c-0.001,0.684,0.163,1.312,0.434,1.881h1.629l1.186-2.639
					c0.035-0.078,0.113-0.128,0.198-0.128c0,0,0.001,0,0.001,0c0.086,0.001,0.163,0.052,0.198,0.131l1.014,2.332l0.249-0.519
					c0.036-0.076,0.112-0.123,0.196-0.123c0.002,0,0.003,0,0.005,0c0.085,0.002,0.161,0.053,0.195,0.132l0.74,1.737l0.432-1.325
					c0.029-0.088,0.11-0.148,0.202-0.15c0.092-0.003,0.176,0.056,0.208,0.142l0.165,0.45h1.782c0.12,0,0.217,0.097,0.217,0.217
					c0,0.12-0.097,0.217-0.217,0.217h-1.934c-0.091,0-0.172-0.057-0.204-0.142l-0.001-0.004l-0.417,1.279
					c-0.028,0.086-0.107,0.146-0.197,0.15c-0.003,0-0.006,0-0.009,0c-0.087,0-0.165-0.052-0.2-0.132l-0.779-1.828l-0.246,0.514
					c-0.036,0.075-0.112,0.123-0.196,0.123c-0.001,0-0.003,0-0.004,0c-0.085-0.002-0.161-0.053-0.195-0.13l-1.008-2.317
					l-1.042,2.319c-0.035,0.078-0.113,0.128-0.198,0.128h-1.538c1.412,2.365,4.58,3.603,4.58,3.603s5.257-2.178,5.262-5.904
					C353.264,105.916,352.04,104.689,350.528,104.687z"/>
			</g>
			<g>
				
					<ellipse transform="matrix(0.7071 -0.7071 0.7071 0.7071 -99.6973 346.8621)" style="fill:#5699C5;" cx="368.851" cy="293.776" rx="8.107" ry="8.107"/>
				<path style="fill:#FFFFFF;" d="M371.371,289.735c-1.129-0.002-2.099,0.681-2.519,1.656c-0.417-0.976-1.385-1.661-2.514-1.663
					c-1.512-0.002-2.739,1.222-2.741,2.733c-0.001,0.685,0.163,1.312,0.434,1.881h1.629l1.185-2.639
					c0.035-0.078,0.113-0.128,0.198-0.128c0,0,0.001,0,0.001,0c0.086,0,0.163,0.052,0.198,0.13l1.014,2.332l0.248-0.519
					c0.036-0.076,0.112-0.123,0.196-0.123c0.002,0,0.003,0,0.005,0c0.085,0.002,0.161,0.053,0.195,0.132l0.74,1.737l0.432-1.325
					c0.029-0.088,0.11-0.148,0.202-0.15c0.092-0.003,0.176,0.055,0.208,0.142l0.165,0.45h1.782c0.12,0,0.217,0.097,0.217,0.217
					c0,0.12-0.097,0.217-0.217,0.217h-1.934c-0.091,0-0.172-0.057-0.204-0.142l-0.001-0.004l-0.417,1.279
					c-0.028,0.086-0.107,0.146-0.197,0.15c-0.003,0-0.006,0-0.01,0c-0.087,0-0.165-0.052-0.2-0.132l-0.779-1.827l-0.246,0.514
					c-0.036,0.075-0.112,0.123-0.196,0.123c-0.001,0-0.003,0-0.004,0c-0.085-0.001-0.161-0.052-0.195-0.13l-1.008-2.317
					l-1.042,2.319c-0.035,0.078-0.113,0.128-0.198,0.128h-1.538c1.412,2.365,4.58,3.603,4.58,3.603s5.257-2.178,5.262-5.904
					C374.107,290.965,372.883,289.737,371.371,289.735z"/>
			</g>
			<g>
				<circle style="fill:#5699C5;" cx="98.225" cy="202.096" r="18.083"/>
				<path style="fill:#FFFFFF;" d="M103.847,193.081c-2.518-0.003-4.682,1.519-5.619,3.694c-0.931-2.178-3.09-3.706-5.609-3.709
					c-3.372-0.005-6.11,2.726-6.114,6.098c-0.002,1.527,0.365,2.926,0.967,4.196h3.635l2.645-5.887
					c0.078-0.174,0.251-0.286,0.442-0.286c0.001,0,0.002,0,0.003,0c0.192,0.001,0.365,0.115,0.441,0.291l2.262,5.201l0.554-1.157
					c0.081-0.168,0.251-0.275,0.437-0.275c0.004,0,0.007,0,0.011,0c0.19,0.004,0.36,0.119,0.435,0.294l1.651,3.875l0.964-2.955
					c0.064-0.196,0.245-0.33,0.452-0.334c0.206-0.007,0.393,0.124,0.463,0.318l0.368,1.003h3.975c0.268,0,0.484,0.217,0.484,0.484
					c0,0.267-0.217,0.484-0.484,0.484h-4.313c-0.203,0-0.385-0.127-0.455-0.318l-0.003-0.008l-0.931,2.852
					c-0.063,0.192-0.238,0.325-0.439,0.334c-0.007,0-0.014,0-0.021,0c-0.193,0-0.369-0.115-0.445-0.294l-1.737-4.077l-0.55,1.147
					c-0.081,0.168-0.251,0.275-0.437,0.275c-0.003,0-0.006,0-0.009,0c-0.19-0.003-0.36-0.117-0.435-0.291l-2.248-5.168l-2.324,5.174
					c-0.078,0.174-0.251,0.286-0.442,0.286h-3.43c3.15,5.276,10.217,8.038,10.217,8.038s11.726-4.859,11.737-13.171
					C109.949,195.824,107.219,193.086,103.847,193.081z"/>
			</g>
			<g>
				<circle style="fill:#5699C5;" cx="243.859" cy="219.219" r="42.689"/>
				<g>
					<path style="fill:#FFFFFF;" d="M254.53,245.838h-21.343c-3.082,0-5.589-2.507-5.589-5.589v-32.51
						c0-3.082,2.507-5.589,5.589-5.589h21.343c3.082,0,5.589,2.507,5.589,5.589v32.51
						C260.119,243.33,257.612,245.838,254.53,245.838z M233.187,204.04c-2.039,0-3.698,1.659-3.698,3.699v32.51
						c0,2.039,1.659,3.699,3.698,3.699h21.343c2.039,0,3.699-1.659,3.699-3.699v-32.51c0-2.039-1.659-3.699-3.699-3.699H233.187z"/>
					<path style="fill:#FFFFFF;" d="M231.19,215.52v16.947h25.336V215.52H231.19z M249.592,225.939h-3.789v3.789h-3.891v-3.789
						h-3.789v-3.891h3.789v-3.789h3.891v3.789h3.789V225.939z"/>
					<path style="fill:#FFFFFF;" d="M254.151,195.72c0-1.724-1.397-3.121-3.121-3.121h-14.344c-1.724,0-3.121,1.397-3.121,3.121
						v4.792h20.585V195.72z"/>
				</g>
			</g>
			<g>
				<circle style="fill:#5699C5;" cx="173.974" cy="316.672" r="18.625"/>
				<g>
					<path style="fill:#FFFFFF;" d="M178.63,328.286h-9.312c-1.345,0-2.438-1.094-2.438-2.438v-14.184
						c0-1.344,1.094-2.438,2.438-2.438h9.312c1.345,0,2.438,1.094,2.438,2.438v14.184
						C181.069,327.192,179.975,328.286,178.63,328.286z M169.318,310.049c-0.89,0-1.614,0.724-1.614,1.614v14.184
						c0,0.89,0.724,1.614,1.614,1.614h9.312c0.89,0,1.614-0.724,1.614-1.614v-14.184c0-0.89-0.724-1.614-1.614-1.614H169.318z"/>
					<path style="fill:#FFFFFF;" d="M168.447,315.058v7.394h11.054v-7.394H168.447z M176.476,319.604h-1.653v1.653h-1.697v-1.653
						h-1.653v-1.698h1.653v-1.653h1.697v1.653h1.653V319.604z"/>
					<path style="fill:#FFFFFF;" d="M178.465,306.42c0-0.752-0.61-1.362-1.362-1.362h-6.258c-0.752,0-1.362,0.61-1.362,1.362v2.091
						h8.981V306.42z"/>
				</g>
			</g>
			<g>
				
					<ellipse transform="matrix(0.2206 -0.9754 0.9754 0.2206 -156.7402 318.2839)" style="fill:#5699C5;" cx="120.795" cy="257.222" rx="21.972" ry="21.972"/>
				<g>
					<path style="fill:#FFFFFF;" d="M126.287,270.922h-10.985c-1.586,0-2.876-1.29-2.876-2.877v-16.733
						c0-1.586,1.29-2.876,2.876-2.876h10.985c1.586,0,2.877,1.29,2.877,2.876v16.733
						C129.164,269.632,127.873,270.922,126.287,270.922z M115.302,249.409c-1.05,0-1.904,0.854-1.904,1.904v16.733
						c0,1.05,0.854,1.904,1.904,1.904h10.985c1.05,0,1.904-0.854,1.904-1.904v-16.733c0-1.05-0.854-1.904-1.904-1.904H115.302z"/>
					<path style="fill:#FFFFFF;" d="M114.274,255.318v8.722h13.04v-8.722H114.274z M123.746,260.68h-1.95v1.95h-2.003v-1.95h-1.95
						v-2.003h1.95v-1.95h2.003v1.95h1.95V260.68z"/>
					<path style="fill:#FFFFFF;" d="M126.092,245.127c0-0.887-0.719-1.606-1.606-1.606h-7.383c-0.887,0-1.606,0.719-1.606,1.606
						v2.466h10.595V245.127z"/>
				</g>
			</g>
			<g>
				
					<ellipse transform="matrix(0.1609 -0.987 0.987 0.1609 50.5976 311.1563)" style="fill:#5699C5;" cx="208.302" cy="125.82" rx="15.207" ry="15.207"/>
				<g>
					<path style="fill:#FFFFFF;" d="M212.104,135.302H204.5c-1.098,0-1.991-0.893-1.991-1.991V121.73
						c0-1.098,0.893-1.991,1.991-1.991h7.603c1.098,0,1.991,0.893,1.991,1.991v11.581
						C214.095,134.409,213.201,135.302,212.104,135.302z M204.5,120.412c-0.726,0-1.318,0.591-1.318,1.318v11.581
						c0,0.727,0.591,1.318,1.318,1.318h7.603c0.727,0,1.318-0.591,1.318-1.318V121.73c0-0.727-0.591-1.318-1.318-1.318H204.5z"/>
					<path style="fill:#FFFFFF;" d="M203.789,124.502v6.037h9.025v-6.037H203.789z M210.345,128.214h-1.35v1.35h-1.386v-1.35h-1.35
						v-1.386h1.35v-1.35h1.386v1.35h1.35V128.214z"/>
					<path style="fill:#FFFFFF;" d="M211.969,117.449c0-0.614-0.498-1.112-1.112-1.112h-5.11c-0.614,0-1.112,0.498-1.112,1.112
						v1.707h7.333V117.449z"/>
				</g>
			</g>
			<g>
				
					<ellipse transform="matrix(0.2298 -0.9732 0.9732 0.2298 -104.6921 218.5338)" style="fill:#5699C5;" cx="85.719" cy="175.409" rx="8.103" ry="8.103"/>
				<g>
					<path style="fill:#FFFFFF;" d="M87.744,180.462h-4.051c-0.585,0-1.061-0.476-1.061-1.061v-6.171
						c0-0.585,0.476-1.061,1.061-1.061h4.051c0.585,0,1.061,0.476,1.061,1.061v6.171C88.805,179.986,88.329,180.462,87.744,180.462z
						 M83.693,172.528c-0.387,0-0.702,0.315-0.702,0.702v6.171c0,0.387,0.315,0.702,0.702,0.702h4.051
						c0.387,0,0.702-0.315,0.702-0.702v-6.171c0-0.387-0.315-0.702-0.702-0.702H83.693z"/>
					<path style="fill:#FFFFFF;" d="M83.314,174.707v3.217h4.809v-3.217H83.314z M86.807,176.685h-0.719v0.719H85.35v-0.719H84.63
						v-0.738h0.719v-0.719h0.738v0.719h0.719V176.685z"/>
					<path style="fill:#FFFFFF;" d="M87.672,170.949c0-0.327-0.265-0.592-0.592-0.592h-2.723c-0.327,0-0.592,0.265-0.592,0.592v0.91
						h3.907V170.949z"/>
				</g>
			</g>
			<g>
				<circle style="fill:#5699C5;" cx="345.318" cy="134.743" r="14.075"/>
				<g>
					<path style="fill:#FFFFFF;" d="M348.836,143.52H341.8c-1.016,0-1.842-0.827-1.842-1.843v-10.719
						c0-1.016,0.827-1.843,1.842-1.843h7.037c1.016,0,1.843,0.827,1.843,1.843v10.719
						C350.679,142.693,349.852,143.52,348.836,143.52z M341.8,129.739c-0.672,0-1.219,0.547-1.219,1.219v10.719
						c0,0.672,0.547,1.219,1.219,1.219h7.037c0.672,0,1.219-0.547,1.219-1.219v-10.719c0-0.672-0.547-1.219-1.219-1.219H341.8z"/>
					<path style="fill:#FFFFFF;" d="M341.141,133.524v5.587h8.353v-5.587H341.141z M347.208,136.959h-1.249v1.249h-1.283v-1.249
						h-1.249v-1.283h1.249v-1.249h1.283v1.249h1.249V136.959z"/>
					<path style="fill:#FFFFFF;" d="M348.711,126.996c0-0.568-0.461-1.029-1.029-1.029h-4.729c-0.568,0-1.029,0.461-1.029,1.029
						v1.58h6.787V126.996z"/>
				</g>
			</g>
			<g>
				
					<ellipse transform="matrix(0.9251 -0.3798 0.3798 0.9251 -100.7402 136.2529)" style="fill:#5699C5;" cx="294.902" cy="323.408" rx="12.268" ry="12.268"/>
				<g>
					<path style="fill:#FFFFFF;" d="M297.969,331.058h-6.134c-0.886,0-1.606-0.721-1.606-1.606v-9.343
						c0-0.886,0.72-1.606,1.606-1.606h6.134c0.886,0,1.606,0.721,1.606,1.606v9.343
						C299.576,330.337,298.855,331.058,297.969,331.058z M291.835,319.046c-0.586,0-1.063,0.477-1.063,1.063v9.343
						c0,0.586,0.477,1.063,1.063,1.063h6.134c0.586,0,1.063-0.477,1.063-1.063v-9.343c0-0.586-0.477-1.063-1.063-1.063H291.835z"/>
					<path style="fill:#FFFFFF;" d="M291.262,322.345v4.87h7.281v-4.87H291.262z M296.55,325.339h-1.089v1.089h-1.118v-1.089h-1.089
						v-1.118h1.089v-1.089h1.118v1.089h1.089V325.339z"/>
					<path style="fill:#FFFFFF;" d="M297.861,316.655c0-0.495-0.402-0.897-0.897-0.897h-4.122c-0.495,0-0.897,0.402-0.897,0.897
						v1.377h5.916V316.655z"/>
				</g>
			</g>
			<g>
				<path style="fill:#5699C5;" d="M232.356,363.049c0,3.874-3.14,7.014-7.014,7.014c-3.874,0-7.014-3.141-7.014-7.014
					s3.14-7.014,7.014-7.014C229.215,356.034,232.356,359.175,232.356,363.049z"/>
				<g>
					<path style="fill:#FFFFFF;" d="M227.095,367.423h-3.507c-0.506,0-0.918-0.412-0.918-0.918v-5.342
						c0-0.506,0.412-0.918,0.918-0.918h3.507c0.506,0,0.918,0.412,0.918,0.918v5.342
						C228.013,367.011,227.601,367.423,227.095,367.423z M223.588,360.555c-0.335,0-0.608,0.273-0.608,0.608v5.342
						c0,0.335,0.273,0.608,0.608,0.608h3.507c0.335,0,0.608-0.273,0.608-0.608v-5.342c0-0.335-0.273-0.608-0.608-0.608H223.588z"/>
					<path style="fill:#FFFFFF;" d="M223.26,362.441v2.785h4.163v-2.785H223.26z M226.284,364.153h-0.623v0.622h-0.639v-0.622
						h-0.622v-0.639h0.622v-0.623h0.639v0.623h0.623V364.153z"/>
					<path style="fill:#FFFFFF;" d="M227.033,359.188c0-0.283-0.229-0.513-0.513-0.513h-2.357c-0.283,0-0.513,0.23-0.513,0.513
						v0.787h3.382V359.188z"/>
				</g>
			</g>
			<g>
				<circle style="fill:#417393;" cx="330.429" cy="300.344" r="26.942"/>
				<g>
					<path style="fill:#FFFFFF;" d="M337.164,317.144h-13.47c-1.945,0-3.527-1.582-3.527-3.527v-20.518
						c0-1.945,1.582-3.527,3.527-3.527h13.47c1.945,0,3.527,1.582,3.527,3.527v20.518
						C340.691,315.562,339.109,317.144,337.164,317.144z M323.693,290.764c-1.287,0-2.334,1.047-2.334,2.334v20.518
						c0,1.287,1.047,2.334,2.334,2.334h13.47c1.287,0,2.334-1.047,2.334-2.334v-20.518c0-1.287-1.047-2.334-2.334-2.334H323.693z"/>
					<path style="fill:#FFFFFF;" d="M322.433,298.01v10.695h15.99V298.01H322.433z M334.047,304.586h-2.391v2.391h-2.456v-2.391
						h-2.391v-2.456h2.391v-2.391h2.456v2.391h2.391V304.586z"/>
					<path style="fill:#FFFFFF;" d="M336.924,285.513c0-1.088-0.882-1.97-1.97-1.97h-9.053c-1.088,0-1.97,0.882-1.97,1.97v3.024
						h12.992V285.513z"/>
				</g>
			</g>
			<g>
				
					<ellipse transform="matrix(0.2316 -0.9728 0.9728 0.2316 110.3387 548.2588)" style="fill:#5699C5;" cx="402.207" cy="204.287" rx="18.195" ry="18.195"/>
				<g>
					<path style="fill:#FFFFFF;" d="M406.755,215.633h-9.097c-1.314,0-2.382-1.069-2.382-2.382v-13.857
						c0-1.314,1.069-2.382,2.382-2.382h9.097c1.314,0,2.382,1.069,2.382,2.382v13.857
						C409.137,214.564,408.069,215.633,406.755,215.633z M397.658,197.817c-0.869,0-1.576,0.707-1.576,1.577v13.857
						c0,0.869,0.707,1.576,1.576,1.576h9.097c0.869,0,1.577-0.707,1.577-1.576v-13.857c0-0.869-0.707-1.577-1.577-1.577H397.658z"/>
					<path style="fill:#FFFFFF;" d="M396.807,202.711v7.223h10.799v-7.223H396.807z M404.651,207.152h-1.615v1.615h-1.658v-1.615
						h-1.615v-1.658h1.615v-1.615h1.658v1.615h1.615V207.152z"/>
					<path style="fill:#FFFFFF;" d="M406.594,194.271c0-0.735-0.595-1.33-1.33-1.33h-6.114c-0.735,0-1.33,0.596-1.33,1.33v2.042
						h8.774V194.271z"/>
				</g>
			</g>
		</g>
		<text transform="matrix(1 0 0 1 143.0869 422.8761)" style="fill:#30546A; font-family:'Poppins-Black'; font-size:26.9376px;">World health</text>
		<text transform="matrix(1 0 0 1 223.2793 439.9747)" style="fill:#417393; font-family:'Poppins-Black'; font-size:14.2966px;">- day -</text>
		<g>
			<path style="fill:#F4F4F4;" d="M41.061,71.456c75.17-25.414,106.619-1.351,168.041-27.576
				c19.955-8.52,28.977-25.806,30.782-43.88H0v96.843C9.925,86.538,23.196,77.496,41.061,71.456z"/>
			<path style="fill:#F4F4F4;" d="M362.333,35.387c28.289,21.438,63.973,23.808,80.036,60.311
				c12.997,29.536,1.68,69.644,26.968,93.288c7.695,7.194,18.702,10.027,30.664,10.05V0H345.682
				C346.231,13.857,351.532,27.202,362.333,35.387z"/>
			<path style="fill:#F4F4F4;" d="M134.734,458.712c-11.347-27.746-45.859-26.038-64.376-45.288
				C40.548,382.432,66.792,329.086,39.42,298.4C29.924,287.755,15.499,282.925,0,281.842V500h130.554
				C137.05,486.468,139.972,471.521,134.734,458.712z"/>
			<path style="fill:#F4F4F4;" d="M459.288,307.917c-32.858,0.643-54.35,23.754-53.611,56.214
				c0.704,30.956,19.898,57.188,15.351,89.021c-2.531,17.717-9.073,33.161-18.596,46.848H500V317.373
				C487.491,311.63,474.393,307.622,459.288,307.917z"/>
			
				<ellipse transform="matrix(0.7071 -0.7071 0.7071 0.7071 68.8962 306.413)" style="fill:#F4F4F4;" cx="404.321" cy="70.041" rx="24.121" ry="24.121"/>
			<path style="fill:#F4F4F4;" d="M429.319,108.197c0,2.906-2.356,5.263-5.263,5.263c-2.907,0-5.263-2.356-5.263-5.263
				c0-2.907,2.356-5.263,5.263-5.263C426.963,102.934,429.319,105.29,429.319,108.197z"/>
			<circle style="fill:#F4F4F4;" cx="49.961" cy="76.181" r="18.42"/>
			<path style="fill:#F4F4F4;" d="M38.559,108.635c0,1.938-1.571,3.508-3.509,3.508c-1.938,0-3.508-1.571-3.508-3.508
				s1.571-3.508,3.508-3.508C36.988,105.127,38.559,106.697,38.559,108.635z"/>
			<path style="fill:#F4F4F4;" d="M71.012,108.197c0,2.422-1.964,4.386-4.386,4.386c-2.422,0-4.386-1.964-4.386-4.386
				c0-2.422,1.963-4.386,4.386-4.386C69.049,103.811,71.012,105.774,71.012,108.197z"/>
			<circle style="fill:#F4F4F4;" cx="69.697" cy="364.318" r="12.28"/>
			<path style="fill:#F4F4F4;" d="M76.714,333.18c0,1.695-1.374,3.07-3.07,3.07c-1.695,0-3.07-1.374-3.07-3.07s1.375-3.07,3.07-3.07
				C75.339,330.11,76.714,331.484,76.714,333.18z"/>
			<path style="fill:#F4F4F4;" d="M88.116,393.702c0,2.664-2.16,4.824-4.824,4.824c-2.664,0-4.824-2.16-4.824-4.824
				c0-2.664,2.16-4.824,4.824-4.824C85.957,388.878,88.116,391.038,88.116,393.702z"/>
			<circle style="fill:#F4F4F4;" cx="399.497" cy="453.785" r="13.595"/>
			<circle style="fill:#F4F4F4;" cx="411.777" cy="423.524" r="3.947"/>
			<circle style="fill:#F4F4F4;" cx="461.773" cy="288.885" r="10.964"/>
		</g>
	</g>
</g>
</svg>
